<?xml version="1.0" encoding="UTF-8" standalone="no"?>
<svg
   xmlns:dc="http://purl.org/dc/elements/1.1/"
   xmlns:cc="http://creativecommons.org/ns#"
   xmlns:rdf="http://www.w3.org/1999/02/22-rdf-syntax-ns#"
   xmlns:svg="http://www.w3.org/2000/svg"
   xmlns="http://www.w3.org/2000/svg"
   xmlns:sodipodi="http://sodipodi.sourceforge.net/DTD/sodipodi-0.dtd"
   xmlns:inkscape="http://www.inkscape.org/namespaces/inkscape"
   width="4.5mm"
   height="4.5mm"
   viewBox="0 0 4.4999999 4.4999999"
   version="1.1"
   id="svg15246"
   sodipodi:docname="MicroPort-pink.svg"
   inkscape:version="1.0.2 (e86c870879, 2021-01-15)">
  <defs
     id="defs15240">
    <inkscape:path-effect
       effect="rough_hatches"
       id="path-effect866"
       is_visible="true"
       lpeversion="1"
       direction="92.702555,118.56171 , 0.27476525,0"
       dist_rdm="4.6;1"
       growth="0"
       do_bend="false"
       bender="92.702555,123.56171 , 5,0"
       bottom_edge_variation="0.08;1"
       top_edge_variation="0.08;1"
       bottom_tgt_variation="0.5;1"
       top_tgt_variation="0;1"
       scale_bf="1"
       scale_bb="0.2"
       scale_tf="1"
       scale_tb="1"
       top_smth_variation="5.4;1586804748"
       bottom_smth_variation="6.7;156544032"
       fat_output="false"
       stroke_width_top="1"
       stroke_width_bottom="1"
       front_thickness="1"
       back_thickness="0.25" />
    <inkscape:path-effect
       effect="roughen"
       id="path-effect864"
       is_visible="true"
       lpeversion="1"
       method="size"
       max_segment_size="0"
       segments="2"
       displace_x="0.0109906;1"
       displace_y="0.017742;1"
       global_randomize="1;1100181633"
       handles="along"
       shift_nodes="true"
       fixed_displacement="true"
       spray_tool_friendly="true" />
    <clipPath
       id="clip89">
      <rect
         y="0"
         x="0"
         width="18"
         height="19"
         id="rect4864" />
    </clipPath>
    <clipPath
       id="clip90">
      <path
         inkscape:connector-curvature="0"
         d="m 0.898438,0.128906 h 16.25 v 17.882813 h -16.25 z m 0,0"
         id="path4861" />
    </clipPath>
    <mask
       id="mask44">
      <g
         style="filter:url(#alpha)"
         id="g4858"
         transform="matrix(0.26458333,0,0,0.26458333,89.358789,128.57765)">
        <rect
           x="0"
           y="0"
           width="3052.8701"
           height="3351.5"
           style="fill:#000000;fill-opacity:0.149994;stroke:none"
           id="rect4856" />
      </g>
    </mask>
    <filter
       id="alpha"
       filterUnits="objectBoundingBox"
       x="0"
       y="0"
       width="1"
       height="1">
      <feColorMatrix
         type="matrix"
         in="SourceGraphic"
         values="0 0 0 0 1 0 0 0 0 1 0 0 0 0 1 0 0 0 1 0"
         id="feColorMatrix4149" />
    </filter>
    <clipPath
       id="clipPath17821">
      <rect
         y="0"
         x="0"
         width="18"
         height="19"
         id="rect17819" />
    </clipPath>
    <clipPath
       id="clipPath17825">
      <path
         inkscape:connector-curvature="0"
         d="m 0.898438,0.128906 h 16.25 v 17.882813 h -16.25 z m 0,0"
         id="path17823" />
    </clipPath>
    <clipPath
       id="clip87">
      <rect
         y="0"
         x="0"
         width="24"
         height="26"
         id="rect4848" />
    </clipPath>
    <clipPath
       id="clip88">
      <path
         inkscape:connector-curvature="0"
         d="m 0.683594,0.921875 h 22.679687 v 24.9375 H 0.683594 Z m 0,0"
         id="path4845" />
    </clipPath>
    <mask
       id="mask43">
      <g
         style="filter:url(#alpha)"
         id="g4842"
         transform="matrix(0.26458333,0,0,0.26458333,89.358789,128.57765)">
        <rect
           x="0"
           y="0"
           width="3052.8701"
           height="3351.5"
           style="fill:#000000;fill-opacity:0.149994;stroke:none"
           id="rect4840" />
      </g>
    </mask>
    <filter
       id="filter17836"
       filterUnits="objectBoundingBox"
       x="0"
       y="0"
       width="1"
       height="1">
      <feColorMatrix
         type="matrix"
         in="SourceGraphic"
         values="0 0 0 0 1 0 0 0 0 1 0 0 0 0 1 0 0 0 1 0"
         id="feColorMatrix17834" />
    </filter>
    <clipPath
       id="clipPath17840">
      <rect
         y="0"
         x="0"
         width="24"
         height="26"
         id="rect17838" />
    </clipPath>
    <clipPath
       id="clipPath17844">
      <path
         inkscape:connector-curvature="0"
         d="m 0.683594,0.921875 h 22.679687 v 24.9375 H 0.683594 Z m 0,0"
         id="path17842" />
    </clipPath>
  </defs>
  <sodipodi:namedview
     id="base"
     pagecolor="#ffffff"
     bordercolor="#666666"
     borderopacity="1.0"
     inkscape:pageopacity="0.0"
     inkscape:pageshadow="2"
     inkscape:zoom="32"
     inkscape:cx="8.9775042"
     inkscape:cy="12.903091"
     inkscape:document-units="mm"
     inkscape:current-layer="layer1"
     showgrid="false"
     inkscape:window-width="1920"
     inkscape:window-height="1017"
     inkscape:window-x="-8"
     inkscape:window-y="-8"
     inkscape:window-maximized="1"
     units="px"
     fit-margin-top="0"
     fit-margin-left="0"
     fit-margin-right="0"
     fit-margin-bottom="0"
     inkscape:document-rotation="0"
     inkscape:snap-bbox="true"
     inkscape:snap-bbox-midpoints="true"
     showguides="true"
     inkscape:guide-bbox="true"
     inkscape:pagecheckerboard="true"
     borderlayer="true">
    <sodipodi:guide
       position="3.8336472,6.6747174"
       orientation="0,-1"
       id="guide4176" />
    <sodipodi:guide
       position="3.7584776,0.12661421"
       orientation="0,-1"
       id="guide4178" />
  </sodipodi:namedview>
  <metadata
     id="metadata15243">
    <rdf:RDF>
      <cc:Work
         rdf:about="">
        <dc:format>image/svg+xml</dc:format>
        <dc:type
           rdf:resource="http://purl.org/dc/dcmitype/StillImage" />
        <dc:title></dc:title>
      </cc:Work>
    </rdf:RDF>
  </metadata>
  <g
     inkscape:label="Layer 1"
     inkscape:groupmode="layer"
     id="layer1"
     transform="translate(-89.288962,-119.87643)">
    <path
       id="rect861"
       style="fill:#ffffff;fill-opacity:0;stroke:#db3939;stroke-width:1.53551;stroke-opacity:0.870036"
       d="m 92.646832,121.89645 c 0,0 -0.07669,0.0577 -0.104764,0.097 -0.0056,0.008 0.04632,-0.13823 0.01922,-0.163 -0.02741,-0.0251 -0.249845,0.30652 -0.275686,0.34266 -0.0051,0.007 0.192471,-0.3956 0.166579,-0.41927 -0.02591,-0.0237 -0.201924,0.52675 -0.229511,0.56533 -0.0056,0.008 0.144728,-0.65033 0.117295,-0.67541 -0.02727,-0.0249 0.139453,0.73966 0.110902,0.77959 -0.0057,0.008 -0.198103,-0.91398 -0.223563,-0.93726 -0.02578,-0.0236 -0.03086,1.0802 -0.05775,1.11781 -0.0053,0.007 -0.02346,-1.16454 -0.05078,-1.18952 -0.02689,-0.0246 -0.169645,1.32846 -0.19539,1.36446 -0.0053,0.007 0.112526,-1.41833 0.08598,-1.44259 -0.02611,-0.0239 -0.200598,1.56418 -0.227914,1.60238 -0.0056,0.008 0.141724,-1.67617 0.11545,-1.70019 -0.0278,-0.0254 -0.275504,1.83211 -0.300987,1.86774 -0.0052,0.007 0.218882,-1.93091 0.19274,-1.95481 -0.02536,-0.0232 0.09265,2.00801 0.06632,2.03275 -0.0051,0.005 -0.147015,-2.16495 -0.173234,-2.18892 -0.02666,-0.0244 0.07163,2.16592 0.04485,2.14145 -0.0052,-0.005 -0.127929,-2.1652 -0.153328,-2.12968 -0.02572,0.036 -0.0745,2.07876 -0.09993,2.05551 -0.0052,-0.005 0.01943,-1.91949 -0.0062,-1.8837 -0.02537,0.0355 0.05599,1.78869 0.03106,1.76591 -0.005,-0.005 -0.111905,-1.6738 -0.137328,-1.63825 -0.02589,0.0362 -0.05114,1.58135 -0.07915,1.55574 -0.0056,-0.005 -0.0055,-1.4202 -0.03246,-1.38246 -0.02611,0.0365 -0.219207,1.33283 -0.247001,1.30742 -0.0054,-0.005 0.161393,-1.16083 0.135525,-1.12466 -0.02705,0.0378 -0.127309,1.03357 -0.153447,1.00968 -0.0051,-0.005 0.07211,-0.91062 0.0456,-0.87355 -0.02771,0.0388 0.08237,0.76396 0.05595,0.73981 -0.0053,-0.005 -0.13975,-0.65637 -0.165906,-0.61979 -0.02612,0.0365 0.177118,0.52934 0.151439,0.50587 -0.0053,-0.005 -0.231859,-0.40841 -0.258975,-0.37049 -0.02549,0.0356 0.188455,0.29344 0.162762,0.26995 -0.0052,-0.005 -0.244445,-0.1576 -0.272263,-0.11869 -0.02786,0.0389 -0.02861,0.0765 -0.02861,0.0765"
       inkscape:path-effect="#path-effect866"
       inkscape:original-d="m 91.619877,120.95772 1.046338,0.95645 -0.946295,1.32337 -1.046341,-0.95647 z" />
    <path
       inkscape:connector-curvature="0"
       id="path7255"
       d="m 91.696775,125.42931 c -1.806207,0 -3.275001,-1.46879 -3.275001,-3.275 0,-1.80618 1.468794,-3.275 3.275001,-3.275 1.806205,0 3.275,1.46882 3.275,3.275 0,1.80621 -1.468795,3.275 -3.275,3.275"
       style="fill:#000000;fill-opacity:0;fill-rule:nonzero;stroke:#ffffff;stroke-width:0.25;stroke-miterlimit:4;stroke-dasharray:none;stroke-opacity:0" />
    <path
       inkscape:connector-curvature="0"
       id="path7261"
       d="m 91.712592,123.91613 c -1.034513,0 -1.888457,-0.83045 -1.888457,-1.85145 0,-1.02099 0.846419,-1.85142 1.888457,-1.85142 1.034513,0 1.888456,0.83043 1.888456,1.85142 0,1.021 -0.846419,1.85145 -1.888456,1.85145"
       style="fill:#c5c5c5;fill-opacity:0.30501935;fill-rule:nonzero;stroke:#ffffff;stroke-width:0.160123;stroke-miterlimit:4;stroke-dasharray:none;stroke-opacity:0.77606177" />
    <path
       inkscape:connector-curvature="0"
       id="path7265"
       d="m 93.069545,122.06466 c 0,0.7744 -0.607825,1.40274 -1.356952,1.40274 -0.749131,0 -1.356955,-0.62834 -1.356955,-1.40274 0,-0.77437 0.607824,-1.40267 1.356955,-1.40267 0.749127,0 1.356952,0.6283 1.356952,1.40267"
       style="fill:#000000;fill-opacity:0.87644786;fill-rule:nonzero;stroke:#ffffff;stroke-width:0.27;stroke-opacity:0.81853276;stroke-miterlimit:4;stroke-dasharray:none;paint-order:stroke fill markers" />
  </g>
</svg>
