<?xml version="1.0" encoding="UTF-8" standalone="no"?>
<svg
   xmlns:dc="http://purl.org/dc/elements/1.1/"
   xmlns:cc="http://creativecommons.org/ns#"
   xmlns:rdf="http://www.w3.org/1999/02/22-rdf-syntax-ns#"
   xmlns:svg="http://www.w3.org/2000/svg"
   xmlns="http://www.w3.org/2000/svg"
   xmlns:xlink="http://www.w3.org/1999/xlink"
   xmlns:sodipodi="http://sodipodi.sourceforge.net/DTD/sodipodi-0.dtd"
   xmlns:inkscape="http://www.inkscape.org/namespaces/inkscape"
   sodipodi:docname="SplitMerge.svg"
   inkscape:version="1.0.2 (e86c870879, 2021-01-15)"
   id="svg8"
   version="1.1"
   viewBox="0 0 10.16 128.5"
   height="128.5mm"
   width="10.16mm">
  <defs
     id="defs2">
    <linearGradient
       inkscape:collect="always"
       id="linearGradient5044">
      <stop
         style="stop-color:#c33333;stop-opacity:1;"
         offset="0"
         id="stop5040" />
      <stop
         style="stop-color:#15d200;stop-opacity:1"
         offset="1"
         id="stop5042" />
    </linearGradient>
    <inkscape:perspective
       sodipodi:type="inkscape:persp3d"
       inkscape:vp_x="0 : 64.25 : 1"
       inkscape:vp_y="0 : 1000 : 0"
       inkscape:vp_z="10.16 : 64.25 : 1"
       inkscape:persp3d-origin="5.08 : 42.833333 : 1"
       id="perspective4994" />
    <linearGradient
       inkscape:collect="always"
       id="linearGradient931">
      <stop
         style="stop-color:#b3b3b3;stop-opacity:1;"
         offset="0"
         id="stop927" />
      <stop
         style="stop-color:#b3b3b3;stop-opacity:0;"
         offset="1"
         id="stop929" />
    </linearGradient>
    <linearGradient
       inkscape:collect="always"
       xlink:href="#linearGradient931"
       id="linearGradient933"
       x1="-0.0014185011"
       y1="232.75072"
       x2="10.158581"
       y2="232.75072"
       gradientUnits="userSpaceOnUse"
       gradientTransform="translate(-10.431584,-465.49528)" />
    <filter
       inkscape:collect="always"
       style="color-interpolation-filters:sRGB"
       id="filter1289"
       x="-0.33062738"
       width="1.6612548"
       y="-0.024848117"
       height="1.0496962">
      <feGaussianBlur
         inkscape:collect="always"
         stdDeviation="1.3217869"
         id="feGaussianBlur1291" />
    </filter>
    <symbol
       id="UpArrow_Inv">
      <title
         id="title2284">Up Arrow</title>
      <rect
         x="0.13229166"
         y="0.13229166"
         width="18.785418"
         height="18.785418"
         ry="1.5875"
         style="stroke:#ffffff;stroke-width:0.264583"
         id="rect2286" />
      <path
         d="m 9.525,2.38125 5.820833,5.8208333 V 12.170833 L 11.1125,7.9375 v 8.466667 H 7.9375 V 7.9375 L 3.7041667,12.170833 V 8.2020833 Z"
         style="fill:#ffffff;stroke:none;stroke-width:0.264583"
         id="path2288" />
    </symbol>
    <symbol
       id="DownArrow_Inv">
      <title
         id="title2332">Down Arrow</title>
      <rect
         x="0.13229166"
         y="0.13229166"
         width="18.785418"
         height="18.785418"
         ry="1.5875"
         style="stroke:#ffffff;stroke-width:0.264583"
         id="rect2334" />
      <path
         d="M 9.525,16.66875 3.7041667,10.847917 V 6.8791667 L 7.9375,11.1125 V 2.6458333 h 3.175 V 11.1125 l 4.233333,-4.2333333 v 3.9687503 z"
         style="fill:#ffffff;stroke:none;stroke-width:0.264583"
         id="path2336" />
    </symbol>
    <linearGradient
       inkscape:collect="always"
       xlink:href="#linearGradient5044"
       id="linearGradient5046"
       x1="-59.630186"
       y1="239.09828"
       x2="-45.846068"
       y2="239.09828"
       gradientUnits="userSpaceOnUse"
       gradientTransform="matrix(0.72853351,0,0,0.98597594,1.3754165,-1.5585166)" />
  </defs>
  <sodipodi:namedview
     inkscape:snap-global="true"
     inkscape:snap-bbox-midpoints="true"
     inkscape:snap-bbox="true"
     inkscape:document-rotation="0"
     inkscape:window-maximized="1"
     inkscape:window-y="-8"
     inkscape:window-x="-8"
     inkscape:window-height="1017"
     inkscape:window-width="1920"
     inkscape:lockguides="false"
     inkscape:guide-bbox="true"
     showguides="true"
     units="mm"
     showgrid="false"
     inkscape:current-layer="layer1"
     inkscape:document-units="mm"
     inkscape:cy="246.07258"
     inkscape:cx="1.6937962"
     inkscape:zoom="11.313709"
     inkscape:pageshadow="2"
     inkscape:pageopacity="0.0"
     borderopacity="1.0"
     bordercolor="#666666"
     pagecolor="#ffffff"
     id="base"
     inkscape:bbox-nodes="false"
     inkscape:bbox-paths="false"
     inkscape:snap-grids="false"
     inkscape:snap-others="false"
     inkscape:object-nodes="false"
     inkscape:snap-nodes="false"
     inkscape:snap-bbox-edge-midpoints="false"
     showborder="true"
     inkscape:pagecheckerboard="true"
     borderlayer="true">
    <sodipodi:guide
       position="17.773424,109.22987"
       orientation="0,1"
       id="guide837"
       inkscape:label=""
       inkscape:locked="false"
       inkscape:color="rgb(0,0,255)" />
    <sodipodi:guide
       inkscape:color="rgb(0,0,255)"
       inkscape:locked="false"
       inkscape:label=""
       id="guide875"
       orientation="0,1"
       position="-9.0869999,33.000001" />
    <sodipodi:guide
       position="20,91.500004"
       orientation="0,1"
       id="guide891"
       inkscape:label=""
       inkscape:locked="false"
       inkscape:color="rgb(0,0,255)" />
    <sodipodi:guide
       position="7.4790153,44.763334"
       orientation="0,1"
       id="guide893"
       inkscape:label=""
       inkscape:locked="false"
       inkscape:color="rgb(0,0,255)" />
    <sodipodi:guide
       position="-21.247928,81.500003"
       orientation="0,1"
       id="guide901"
       inkscape:label=""
       inkscape:locked="false"
       inkscape:color="rgb(0,0,255)" />
    <sodipodi:guide
       position="-4.8854,23.000001"
       orientation="0,1"
       id="guide3392"
       inkscape:label=""
       inkscape:locked="false"
       inkscape:color="rgb(0,0,255)" />
    <sodipodi:guide
       inkscape:color="rgb(0,0,255)"
       inkscape:locked="false"
       inkscape:label=""
       id="guide907"
       orientation="0,1"
       position="-14.335827,13.000001" />
    <sodipodi:guide
       position="0,63.580236"
       orientation="0,1"
       id="guide908"
       inkscape:label=""
       inkscape:locked="false"
       inkscape:color="rgb(0,0,255)" />
    <sodipodi:guide
       inkscape:color="rgb(0,0,255)"
       inkscape:locked="false"
       inkscape:label=""
       id="guide944"
       orientation="-1,0"
       position="7.9512686,61.031153" />
    <sodipodi:guide
       position="-37.318825,69.750003"
       orientation="0,1"
       id="guide882"
       inkscape:label=""
       inkscape:locked="false"
       inkscape:color="rgb(0,0,255)" />
    <sodipodi:guide
       position="5.5888095,26.729588"
       orientation="0,1"
       id="guide1003"
       inkscape:label=""
       inkscape:locked="false"
       inkscape:color="rgb(0,0,255)" />
    <sodipodi:guide
       position="23.573173,13.000001"
       orientation="0,1"
       id="guide1005"
       inkscape:label=""
       inkscape:locked="false"
       inkscape:color="rgb(0,0,255)" />
    <sodipodi:guide
       position="12.652406,37.000001"
       orientation="0,1"
       id="guide1007"
       inkscape:label=""
       inkscape:locked="false"
       inkscape:color="rgb(0,0,255)" />
    <sodipodi:guide
       position="0,63.580236"
       orientation="0,1"
       id="guide1009"
       inkscape:label=""
       inkscape:locked="false"
       inkscape:color="rgb(0,0,255)" />
    <sodipodi:guide
       position="44.340016,95.572398"
       orientation="0,1"
       id="guide1013"
       inkscape:label=""
       inkscape:locked="false"
       inkscape:color="rgb(0,0,255)" />
    <sodipodi:guide
       position="12.556796,115.5"
       orientation="0,1"
       id="guide1017"
       inkscape:label=""
       inkscape:locked="false"
       inkscape:color="rgb(0,0,255)" />
    <sodipodi:guide
       position="34.050138,13.000001"
       orientation="0,1"
       id="guide911"
       inkscape:label=""
       inkscape:locked="false"
       inkscape:color="rgb(0,0,255)" />
    <sodipodi:guide
       position="0,128.50001"
       orientation="0,38.399999"
       id="guide912" />
    <sodipodi:guide
       position="10.16,128.50001"
       orientation="485.66929,0"
       id="guide914" />
    <sodipodi:guide
       position="10.16,0"
       orientation="0,-38.399999"
       id="guide916" />
    <sodipodi:guide
       position="0,0"
       orientation="-485.66929,0"
       id="guide918" />
    <sodipodi:guide
       position="0,128.50001"
       orientation="0,38.399999"
       id="guide920" />
    <sodipodi:guide
       position="28.25039,81.500003"
       orientation="485.66929,0"
       id="guide922" />
    <sodipodi:guide
       position="10.16,0"
       orientation="0,-38.399999"
       id="guide924" />
    <sodipodi:guide
       position="0,115.5"
       orientation="-485.66929,0"
       id="guide926" />
    <inkscape:grid
       type="xygrid"
       id="grid888" />
  </sodipodi:namedview>
  <metadata
     id="metadata5">
    <rdf:RDF>
      <cc:Work
         rdf:about="">
        <dc:format>image/svg+xml</dc:format>
        <dc:type
           rdf:resource="http://purl.org/dc/dcmitype/StillImage" />
        <dc:title />
      </cc:Work>
    </rdf:RDF>
  </metadata>
  <g
     transform="translate(0,-168.5)"
     id="layer1"
     inkscape:groupmode="layer"
     inkscape:label="Layer 1"
     style="display:inline">
    <path
       sodipodi:type="spiral"
       style="fill:#a3ff2a;fill-opacity:0.694981;fill-rule:evenodd;stroke:none;stroke-width:0.264583"
       id="path3012"
       sodipodi:cx="3.8353176"
       sodipodi:cy="189.92165"
       sodipodi:expansion="1"
       sodipodi:revolution="3"
       sodipodi:radius="5.1525865"
       sodipodi:argument="-17.333252"
       sodipodi:t0="0"
       d="m 3.8353176,189.92165 c 0.014071,0.25796 -0.3407816,0.14623 -0.4287448,0.0234 -0.238375,-0.33291 0.055558,-0.75702 0.3819719,-0.88087 0.5838779,-0.22155 1.1818682,0.2273 1.3330075,0.78733 0.221803,0.82186 -0.3995071,1.61415 -1.1926887,1.78514 -1.0571863,0.2279 -2.0492909,-0.57164 -2.2372702,-1.59805 -0.2365527,-1.29164 0.7436674,-2.48585 2.0034055,-2.6894 1.5257116,-0.24653 2.923211,0.91563 3.1415328,2.40876 0.2572847,1.7596 -1.0875535,3.36108 -2.8141222,3.59366 -1.9933919,0.26853 -3.79928752,-1.25944 -4.04579549,-3.21948 -0.28009801,-2.22711 1.43131859,-4.23773 3.62483899,-4.49792 2.4607984,-0.2919 4.6763463,1.60317 4.9500581,4.03019 0.303872,2.69446 -1.7750257,5.1151 -4.4355557,5.40219"
       transform="matrix(2.7891,-0.22844074,0.92417047,3.3788046,-181.54732,-370.12138)" />
    <rect
       style="display:inline;opacity:0.365325;fill:url(#linearGradient933);fill-opacity:1;stroke:none;stroke-width:1.131;stroke-miterlimit:4;stroke-dasharray:none"
       id="rect63"
       width="10.16"
       height="128.5"
       x="-10.433002"
       y="-296.99457"
       inkscape:label="Merge BG"
       transform="rotate(-179.93244)"
       sodipodi:insensitive="true" />
    <rect
       style="display:none;opacity:1;fill:#00ff54;fill-opacity:0.661538;stroke:none;stroke-width:1.131;stroke-miterlimit:4;stroke-dasharray:none"
       id="rect838"
       width="10.16"
       height="128.5"
       x="-5.5511151e-17"
       y="168.5"
       inkscape:label="Split BG" />
    <rect
       style="display:none;fill:#3b0046;fill-opacity:1;stroke:none;stroke-width:0.337654;stroke-opacity:1"
       id="rect934"
       width="4.0747046"
       height="6.8746209"
       x="20.607883"
       y="289.30594" />
    <rect
       style="display:none;fill:#3b0046;fill-opacity:1;stroke-width:0.138323"
       id="rect896"
       width="4.0755014"
       height="7.353652"
       x="20.607283"
       y="287.83472"
       rx="0.47389561"
       ry="0.57675755" />
    <path
       style="display:inline;opacity:0.76161;fill:#f20c0c;fill-opacity:0.830116;fill-rule:evenodd;stroke:none;stroke-width:2.07001;stroke-linejoin:round;stroke-miterlimit:4;stroke-dasharray:none;stroke-opacity:1;paint-order:stroke fill markers"
       d="m 8.506589,316.86455 c -0.1254798,-0.25434 -0.4185517,-2.40078 -0.6512627,-4.76987 -0.2327086,-2.369 -0.4940752,-4.92556 -0.5807941,-5.68118 -0.08673,-0.75556 -0.2622144,-2.86691 -0.3899591,-4.69175 -0.3171194,-4.52997 -0.5787888,-7.51485 -0.777166,-8.86536 -0.091557,-0.62332 -0.2832607,-3.23489 -0.4260262,-5.80371 -0.1427615,-2.56875 -0.6596905,-8.76039 -1.1487335,-13.75921 -0.4890501,-4.99888 -0.7891625,-9.8227 -0.6669217,-10.71969 0.1821298,-1.33664 0.7729081,-2.09657 3.2741116,-4.21184 1.6785397,-1.41951 3.0541157,-2.40372 3.0568637,-2.18706 0.0028,0.21737 0.182199,-4.7e-4 0.39861,-0.48514 0.346758,-0.7732 0.420229,-0.78365 0.61444,-0.0874 0.121334,0.43404 0.222433,14.30032 0.224708,30.81219 0.0023,16.51183 -0.05794,29.77803 -0.133801,29.48029 -0.170643,-0.66974 -1.3268377,-0.55915 -1.3293427,0.12731 -0.0025,0.71178 -1.1921232,1.39469 -1.4649731,0.84166 z"
       id="path3552-5" />
    <rect
       style="display:none;fill:none;fill-opacity:1;stroke:#000088;stroke-width:0.409113;stroke-opacity:1"
       id="rect1019"
       width="9.3140593"
       height="112.83746"
       x="0.4231101"
       y="174.30049"
       rx="1.1174084"
       ry="2.1396914" />
    <rect
       style="display:none;fill:#ff7770;fill-opacity:1;stroke-width:0.249031"
       id="rect955"
       width="10.139827"
       height="9.5799189"
       x="-20.962803"
       y="340.17102"
       rx="1.1790502"
       ry="0.75136673" />
    <g
       aria-label="split"
       id="text892"
       style="font-style:normal;font-variant:normal;font-weight:normal;font-stretch:normal;font-size:4.93889px;line-height:1.25;font-family:NeoSans;-inkscape-font-specification:NeoSans;display:none;fill:#000000;fill-opacity:1;stroke:none;stroke-width:0.264583"
       inkscape:label="split pfad">
      <path
         d="m 3.4475213,294.57854 c 0,-0.32597 -0.2173112,-0.48895 -0.627239,-0.71614 l -0.3309057,-0.18274 c -0.3012723,-0.16792 -0.4790723,-0.29633 -0.4790723,-0.51364 0,-0.35066 0.2420056,-0.41487 0.5580946,-0.41487 0.2716389,0 0.5580945,0.0395 0.6865057,0.0543 0.00494,0 0.00988,0 0.014817,0 0.049389,0 0.0889,-0.0198 0.0889,-0.079 v -0.0395 c 0,-0.0445 -0.034572,-0.0741 -0.1037167,-0.084 -0.1679223,-0.0197 -0.3506612,-0.0444 -0.7062613,-0.0444 -0.3901723,0 -0.7556502,0.14817 -0.7556502,0.60749 0,0.33584 0.227189,0.49883 0.5976057,0.70132 l 0.316089,0.17286 c 0.4148668,0.22719 0.5235223,0.33585 0.5235223,0.53834 0,0.40005 -0.2716389,0.49389 -0.627239,0.49389 -0.2024945,0 -0.4889501,-0.0395 -0.7260168,-0.079 -0.00988,0 -0.019756,0 -0.029633,0 -0.04445,0 -0.079022,0.0198 -0.079022,0.0691 v 0.0543 c 0,0.0445 0.039511,0.0642 0.1086556,0.079 0.1778,0.0346 0.493889,0.0691 0.716139,0.0691 0.4593168,0 0.854428,-0.15805 0.854428,-0.68651 z"
         style="fill:#ffffff"
         id="path906" />
      <path
         d="m 5.9120206,294.08465 v -0.32597 c 0,-0.7112 -0.2864557,-1.20015 -0.9680225,-1.20015 -0.2815167,0 -0.6124223,0.0494 -0.8297335,0.0938 -0.059267,0.0148 -0.074083,0.0346 -0.074083,0.0938 v 3.35845 c 0,0.0494 0.034572,0.0938 0.083961,0.0938 h 0.049389 c 0.049389,0 0.083961,-0.0445 0.083961,-0.0938 v -0.9137 c 0.1975556,0.0444 0.493889,0.0741 0.6865057,0.0741 0.6420557,0 0.9680225,-0.40005 0.9680225,-1.1804 z m -0.2173112,0 c 0,0.65193 -0.2074334,0.98778 -0.7507113,0.98778 -0.1926167,0 -0.4988279,-0.0247 -0.6865057,-0.0642 v -2.19286 c 0.1778001,-0.0296 0.449439,-0.0642 0.6865057,-0.0642 0.5531557,0 0.7507113,0.37042 0.7507113,1.00753 z"
         style="fill:#ffffff"
         id="path908" />
      <path
         d="m 6.7960805,295.14157 v -3.48191 c 0,-0.0494 -0.034572,-0.0938 -0.083961,-0.0938 h -0.049389 c -0.049389,0 -0.083961,0.0445 -0.083961,0.0938 v 3.48191 c 0,0.0494 0.034572,0.0938 0.083961,0.0938 h 0.049389 c 0.049389,0 0.083961,-0.0444 0.083961,-0.0938 z"
         style="fill:#ffffff"
         id="path910" />
      <path
         d="m 7.8036069,292.00044 v -0.36548 c 0,-0.0494 -0.04445,-0.0938 -0.093839,-0.0938 h -0.029633 c -0.049389,0 -0.093839,0.0445 -0.093839,0.0938 v 0.36548 c 0,0.0543 0.04445,0.0938 0.093839,0.0938 h 0.029633 c 0.049389,0 0.093839,-0.0395 0.093839,-0.0938 z m 0,3.14113 v -2.4645 c 0,-0.0494 -0.04445,-0.0938 -0.093839,-0.0938 h -0.029633 c -0.049389,0 -0.093839,0.0444 -0.093839,0.0938 v 2.4645 c 0,0.0494 0.04445,0.0938 0.093839,0.0938 h 0.029633 c 0.049389,0 0.093839,-0.0444 0.093839,-0.0938 z"
         style="fill:#333333"
         id="path912" />
      <path
         d="m 9.8779335,295.17121 v -0.0296 c 0,-0.0444 -0.029633,-0.0691 -0.1037167,-0.0691 H 9.5371501 c -0.2173112,0 -0.3407834,-0.0444 -0.3407834,-0.34078 v -1.94593 h 0.5877279 c 0.054328,0 0.093839,-0.0296 0.093839,-0.079 v -0.0494 c 0,-0.0494 -0.039511,-0.0741 -0.093839,-0.0741 H 9.1963667 v -0.50871 c 0,-0.0494 -0.029633,-0.0938 -0.079022,-0.0938 h -0.054328 c -0.054328,0 -0.083961,0.0444 -0.083961,0.0938 v 0.50871 H 8.4901054 c -0.054328,0 -0.093839,0.0247 -0.093839,0.0741 v 0.0494 c 0,0.0494 0.039511,0.079 0.093839,0.079 h 0.4889501 v 1.94593 c 0,0.42474 0.2074334,0.5334 0.5580946,0.5334 0.083961,0 0.1827389,-0.005 0.2568223,-0.0148 0.069144,-0.01 0.083961,-0.0395 0.083961,-0.079 z"
         style="fill:#333333"
         id="path914" />
    </g>
    <g
       aria-label="merge"
       id="text923"
       style="font-style:normal;font-variant:normal;font-weight:normal;font-stretch:normal;font-size:3.88056px;line-height:1.25;font-family:NeoSans;-inkscape-font-specification:NeoSans;display:none;fill:#333333;fill-opacity:1;stroke:none;stroke-width:0.264583"
       inkscape:label="merge orig text"
       transform="translate(14.522758,-0.81851293)">
      <path
         d="m 2.6946755,295.74634 v -1.38924 c 0,-0.46179 -0.2716392,-0.6403 -0.5976062,-0.6403 -0.2056697,0 -0.4307421,0.066 -0.6247701,0.15911 -0.097014,-0.11642 -0.2289531,-0.15911 -0.3686532,-0.15911 -0.20566971,0 -0.43074219,0.0893 -0.58984514,0.16687 v -0.0698 c 0,-0.0427 -0.0271639,-0.0776 -0.0698501,-0.0776 H 0.4129063 c -0.0426862,0 -0.0698501,0.0349 -0.0698501,0.0776 v 1.93252 c 0,0.0388 0.0194028,0.0737 0.0582084,0.0737 h 0.0543278 c 0.0388056,0 0.0582084,-0.0349 0.0582084,-0.0737 v -1.71521 c 0.17850575,-0.0854 0.38417543,-0.16298 0.55492,-0.16298 0.2056697,0 0.3647727,0.11253 0.3647727,0.47343 v 1.40476 c 0,0.0388 0.015522,0.0737 0.054328,0.0737 h 0.058208 c 0.042686,0 0.058208,-0.0349 0.058208,-0.0737 v -1.40476 c 0,-0.13971 -0.023283,-0.25224 -0.058208,-0.34149 0.159103,-0.0776 0.3531309,-0.13194 0.5238756,-0.13194 0.2832809,0 0.4540255,0.12029 0.4540255,0.48895 v 1.38924 c 0,0.0388 0.023283,0.0737 0.06597,0.0737 h 0.038806 c 0.042686,0 0.065969,-0.0349 0.065969,-0.0737 z"
         style="font-style:normal;font-variant:normal;font-weight:normal;font-stretch:normal;font-size:3.88056px;font-family:NeoSans;-inkscape-font-specification:NeoSans;fill:#333333;fill-opacity:1;stroke-width:0.264583"
         id="path933" />
      <path
         d="m 4.7358439,294.74515 v -0.10477 c 0,-0.55104 -0.2367142,-0.92358 -0.7722315,-0.92358 -0.5122339,0 -0.7838731,0.39194 -0.7838731,0.92746 v 0.25612 c 0,0.73342 0.3919366,0.94297 0.873126,0.94297 0.1746252,0 0.3958171,-0.0272 0.582084,-0.066 0.058208,-0.0116 0.073731,-0.031 0.073731,-0.0737 v -0.0272 c 0,-0.0388 -0.027164,-0.0543 -0.058208,-0.0543 -0.00776,0 -0.015522,0.004 -0.023283,0.004 -0.1901475,0.0388 -0.4035783,0.066 -0.5743229,0.066 -0.388056,0 -0.7023813,-0.1397 -0.7023813,-0.79163 v -0.0815 h 1.3116292 c 0.038806,0 0.073731,-0.031 0.073731,-0.0737 z m -0.1707447,-0.0815 H 3.350484 v -0.0194 c 0,-0.46179 0.1823863,-0.77611 0.6131284,-0.77611 0.4385033,0 0.6014868,0.28328 0.6014868,0.77223 z"
         style="font-style:normal;font-variant:normal;font-weight:normal;font-stretch:normal;font-size:3.88056px;font-family:NeoSans;-inkscape-font-specification:NeoSans;fill:#333333;fill-opacity:1;stroke-width:0.264583"
         id="path935" />
      <path
         d="m 6.0358301,293.80606 v -0.031 c 0,-0.0466 -0.042686,-0.0582 -0.1047752,-0.0582 -0.1901474,0 -0.3414892,0.0505 -0.5393978,0.17851 v -0.0815 c 0,-0.0427 -0.027164,-0.0776 -0.06985,-0.0776 h -0.031044 c -0.042686,0 -0.06985,0.0349 -0.06985,0.0776 v 1.93252 c 0,0.0388 0.034925,0.0737 0.073731,0.0737 h 0.023283 c 0.038806,0 0.073731,-0.0349 0.073731,-0.0737 v -1.69969 c 0.228953,-0.14358 0.3919366,-0.1785 0.5393978,-0.1785 0.062089,0 0.1047752,-0.0116 0.1047752,-0.0621 z"
         style="font-style:normal;font-variant:normal;font-weight:normal;font-stretch:normal;font-size:3.88056px;font-family:NeoSans;-inkscape-font-specification:NeoSans;fill:#333333;fill-opacity:1;stroke-width:0.264583"
         id="path937" />
      <path
         d="m 8.0459528,293.84098 v -0.0427 c 0,-0.0388 -0.034925,-0.0621 -0.073731,-0.0621 H 7.1805879 c -0.6635757,0 -0.7993953,0.34925 -0.7993953,0.64805 v 0.031 c 0,0.20567 0.073731,0.35701 0.2017891,0.46178 -0.1125362,0.0505 -0.1629835,0.15522 -0.1629835,0.24836 0,0.11641 0.062089,0.21731 0.2056697,0.26 l 0.027164,0.008 c -0.1280585,0.0776 -0.291042,0.28716 -0.291042,0.5588 v 0.0349 c 0,0.35313 0.2250725,0.60149 0.8226787,0.60149 0.6131285,0 0.8226787,-0.25224 0.8226787,-0.60149 v -0.0349 c 0,-0.31433 -0.2056697,-0.41522 -0.6208896,-0.52388 l -0.6985008,-0.18238 c -0.089253,-0.0233 -0.1125362,-0.0698 -0.1125362,-0.1203 0,-0.0776 0.050447,-0.13194 0.131939,-0.16687 0.1435807,0.0582 0.2716392,0.0893 0.4734283,0.0893 0.6092479,0 0.8032759,-0.26388 0.8032759,-0.63253 v -0.031 c 0,-0.28328 -0.1358196,-0.4191 -0.2134308,-0.48119 h 0.2017892 c 0.038806,0 0.073731,-0.0194 0.073731,-0.0621 z m -0.228953,0.57433 c 0,0.26775 -0.124178,0.48507 -0.6364119,0.48507 -0.5316367,0 -0.6286507,-0.29105 -0.6286507,-0.48507 v -0.031 c 0,-0.24835 0.093133,-0.50059 0.6286507,-0.50059 0.5044728,0 0.6364119,0.22119 0.6364119,0.50059 z m 0.019403,1.57162 c 0,0.28716 -0.1358196,0.45791 -0.6519341,0.45791 -0.4967117,0 -0.6558146,-0.17851 -0.6558146,-0.45791 v -0.0349 c 0,-0.26 0.1125362,-0.40358 0.2832808,-0.51612 l 0.5355173,0.1397 c 0.4074588,0.10478 0.4889506,0.15911 0.4889506,0.37642 z"
         style="font-size:3.88056px;fill:#ffffff;fill-opacity:1"
         id="path939" />
      <path
         d="m 9.990108,294.74515 v -0.10477 c 0,-0.55104 -0.2367142,-0.92358 -0.7722315,-0.92358 -0.5122339,0 -0.7838731,0.39194 -0.7838731,0.92746 v 0.25612 c 0,0.73342 0.3919366,0.94297 0.873126,0.94297 0.1746252,0 0.3958171,-0.0272 0.582084,-0.066 0.058208,-0.0116 0.073731,-0.031 0.073731,-0.0737 v -0.0272 c 0,-0.0388 -0.027164,-0.0543 -0.058208,-0.0543 -0.00776,0 -0.015522,0.004 -0.023283,0.004 -0.1901474,0.0388 -0.4035782,0.066 -0.5743229,0.066 -0.388056,0 -0.7023813,-0.1397 -0.7023813,-0.79163 v -0.0815 h 1.3116292 c 0.038806,0 0.073731,-0.031 0.073731,-0.0737 z m -0.1707447,-0.0815 H 8.6047481 v -0.0194 c 0,-0.46179 0.1823863,-0.77611 0.6131284,-0.77611 0.4385033,0 0.6014868,0.28328 0.6014868,0.77223 z"
         style="font-size:3.88056px;fill:#ffffff;fill-opacity:1"
         id="path941" />
    </g>
    <text
       xml:space="preserve"
       style="font-style:normal;font-variant:normal;font-weight:normal;font-stretch:normal;font-size:4.93889px;line-height:1.25;font-family:NeoSans;-inkscape-font-specification:NeoSans;display:none;fill:#000000;fill-opacity:1;stroke:none;stroke-width:0.264583"
       x="1.5213542"
       y="295.23541"
       id="text904"
       inkscape:label="split orig text"><tspan
         sodipodi:role="line"
         id="tspan902"
         x="0"
         y="0"
         style="font-style:normal;font-variant:normal;font-weight:normal;font-stretch:normal;font-size:4.93889px;font-family:NeoSans;-inkscape-font-specification:NeoSans;stroke-width:0.264583"><tspan
           style="fill:#ffffff"
           id="tspan898">spl</tspan><tspan
           style="fill:#333333"
           id="tspan900">it</tspan></tspan></text>
    <text
       xml:space="preserve"
       style="font-style:normal;font-variant:normal;font-weight:normal;font-stretch:normal;font-size:3.88056px;line-height:1.25;font-family:NeoSans;-inkscape-font-specification:NeoSans;display:none;fill:#333333;fill-opacity:1;stroke:none;stroke-width:0.264583"
       x="0.071417026"
       y="295.82007"
       id="text931"
       inkscape:label="merge orig text"><tspan
         sodipodi:role="line"
         id="tspan929"
         x="0"
         y="0"
         style="font-style:normal;font-variant:normal;font-weight:normal;font-stretch:normal;font-size:3.88056px;font-family:NeoSans;-inkscape-font-specification:NeoSans;fill:#333333;fill-opacity:1;stroke-width:0.264583">mer<tspan
   style="font-size:3.88056px;fill:#ffffff;fill-opacity:1"
   id="tspan927">ge</tspan></tspan></text>
    <rect
       style="display:none;fill:#fff200;fill-opacity:0.773077;stroke-width:0.250244"
       id="rect897"
       width="10.139827"
       height="9.6734638"
       x="-25.37232"
       y="168.5491"
       rx="1.1790502"
       ry="0.75870353" />
    <rect
       style="opacity:0.510836;fill:#66eb6c;fill-opacity:0.687259;fill-rule:evenodd;stroke:none;stroke-width:1.17869;stroke-linejoin:round;stroke-miterlimit:4;stroke-dasharray:none;stroke-opacity:1;paint-order:stroke fill markers;filter:url(#filter1289)"
       id="use3028"
       width="47.345142"
       height="14.099158"
       x="246.31694"
       y="-48.397907"
       rx="16.426449"
       ry="0"
       transform="matrix(0.22878672,1.3530927,-0.5415302,0.02495714,-79.51543,-190.26326)" />
    <path
       style="opacity:0.383901;fill:#02ff00;fill-opacity:1;fill-rule:evenodd;stroke:none;stroke-width:1.79285;stroke-linejoin:round;stroke-miterlimit:4;stroke-dasharray:none;stroke-opacity:1;paint-order:stroke fill markers"
       d="m 4.1718195,219.49355 c 3.7638817,-19.54649 4.8463378,-24.65052 5.2106504,-24.56942 0.3587269,0.0799 -0.5503254,5.41168 -4.1342344,24.24834 -2.6537438,13.94779 -4.72233253,24.06643 -4.8977492,23.95765 -0.16702282,-0.10357 -0.44447739,0.0869 -0.61657688,0.42344 -0.17209702,0.33647 1.82496388,-10.49054 4.43791008,-24.06001 z"
       id="path3548" />
    <path
       style="opacity:0.383901;fill:#0e00ff;fill-opacity:1;fill-rule:evenodd;stroke:none;stroke-width:1.11795;stroke-linejoin:round;stroke-miterlimit:4;stroke-dasharray:none;stroke-opacity:1;paint-order:stroke fill markers"
       d="m 3.998019,253.47322 c -0.070639,-0.0874 0.2891985,-0.62336 0.7996361,-1.19084 l 0.9280677,-1.03177 2.0581504,-11.27192 c 2.2339538,-12.23478 2.5377498,-14.75692 1.7328497,-14.3863 -0.2707428,0.12464 -0.5748066,0.18779 -0.6756777,0.14042 -0.1008839,-0.0473 -0.021566,-0.16177 0.1762565,-0.25405 0.1978206,-0.0923 0.3046067,-0.23599 0.2372983,-0.31936 -0.1563878,-0.19367 0.850977,-0.96368 1.08581,-0.82996 0.271792,0.15477 0.25469,2.78279 -0.04075,6.26155 -0.147368,1.73529 -0.3027991,4.0104 -0.345401,5.05581 -0.042599,1.04544 -0.1259935,2.60519 -0.1853559,3.46614 -0.059341,0.86094 -0.1226357,1.93933 -0.1406542,2.39642 -0.018036,0.45709 -0.2469519,2.28263 -0.5087435,4.05677 -0.4250847,2.88077 -0.5433475,3.30358 -1.1059521,3.95388 -0.3464817,0.40049 -0.6612985,0.9063 -0.6995901,1.12401 -0.038293,0.21773 -0.1901011,0.38678 -0.3373521,0.37568 -0.1472668,-0.0107 -0.3719803,0.18294 -0.4994023,0.43128 -0.1274208,0.24829 -0.5644958,0.6706 -0.9712791,0.93848 -0.4067826,0.26789 -0.7593179,0.59914 -0.7834128,0.73613 -0.055789,0.31721 -0.5554834,0.55699 -0.7245034,0.34766 z M 8.9861407,236.1567 c 0.4003935,-2.52632 -0.00553,-0.4228 -0.9020417,4.67452 -0.8965158,5.09731 -1.2241103,7.16431 -0.7279873,4.59332 0.4961232,-2.57099 1.2296362,-6.74151 1.630029,-9.26784 z"
       id="path3550" />
    <path
       style="opacity:0.383901;fill:#ffe422;fill-opacity:0.907336;fill-rule:evenodd;stroke:none;stroke-width:1.82431;stroke-linejoin:round;stroke-miterlimit:4;stroke-dasharray:none;stroke-opacity:1;paint-order:stroke fill markers"
       d="m -1.6545922,299.06416 c -0.184397,-0.0867 -0.03234,-0.83569 0.337885,-1.66437 0.37023096,-0.82868 0.74694696,-1.72271 0.83714296,-1.98673 0.0902,-0.26403 0.491331,-1.00326 0.891407,-1.64274 0.99312104,-1.5874 1.52995104,-2.6322 1.59442504,-3.10313 0.02975,-0.21733 0.582506,-1.13231 1.228342,-2.0333 0.645831,-0.90098 1.817044,-3.06882 2.602702,-4.81742 0.785653,-1.7486 1.92702,-3.43983 2.536369,-3.75828 0.908001,-0.47453 2.5109412,-0.75522 8.8837842,-1.55562 4.276733,-0.53713 7.71434,-0.91426 7.63913,-0.83806 -0.07523,0.0762 0.406924,-0.005 1.071378,-0.17936 1.063666,-0.27989 1.231463,-0.28521 1.403314,-0.0445 0.107357,0.15036 -4.871893,5.02857 -11.065001,10.84046 -6.193106,5.81189 -11.3071892,10.48274 -11.3646272,10.37965 -0.129245,-0.23194 -2.749551,-0.16718 -3.012784,0.0745 -0.272839,0.25046 -3.182453,0.51755 -3.583467,0.32895 z"
       id="path3552" />
    <path
       style="opacity:0.383901;fill:#2eccff;fill-opacity:0.803089;fill-rule:evenodd;stroke:none;stroke-width:0.847126;stroke-linejoin:round;stroke-miterlimit:4;stroke-dasharray:none;stroke-opacity:1;paint-order:stroke fill markers"
       d="m 0.84646221,256.81095 c 0.19452199,-0.0779 0.67648729,-0.20639 1.07103579,-0.28567 0.6752811,-0.13569 0.9435209,-0.46704 4.5729252,-5.6488 2.120561,-3.02756 3.8994948,-5.70742 3.9531848,-5.95524 0.0635,-0.29308 -0.09913,-0.47163 -0.4652598,-0.5108 -0.6259439,-0.067 -0.2375438,-0.38265 0.4614168,-0.37503 0.646833,0.007 0.640663,0.20425 -0.06275,2.00638 -0.7694828,1.97142 -2.4570258,6.04697 -2.672216,6.45362 -0.9776191,1.84744 -1.6643432,2.95125 -1.9656218,3.15947 -0.4339552,0.29989 -2.3123494,0.85234 -3.7900041,1.11467 -1.2516799,0.22219 -1.58591236,0.23475 -1.10271728,0.0414 z M 7.443462,250.3701 c 0.4414375,-0.71478 -0.016687,-0.131 -1.0180578,1.29727 -1.0013693,1.42829 -1.3625456,2.01312 -0.8026146,1.29962 0.5599316,-0.71349 1.3792334,-1.88209 1.8206724,-2.59689 z"
       id="path3554" />
    <path
       style="opacity:0.383901;fill:#e2ff00;fill-opacity:1;fill-rule:evenodd;stroke:none;stroke-width:2.22643;stroke-linejoin:round;stroke-miterlimit:4;stroke-dasharray:none;stroke-opacity:1;paint-order:stroke fill markers"
       d="m 9.0418248,242.85921 c 0.6362847,-2.41128 1.0111372,-3.47197 0.8329246,-2.35709 -0.178214,1.1149 -0.6988401,3.08777 -1.1569623,4.38417 -0.4581093,1.2964 -0.3122967,0.38421 0.324023,-2.02707 z"
       id="path3556" />
    <path
       style="opacity:0.383901;fill:#e2ff00;fill-opacity:1;fill-rule:evenodd;stroke:none;stroke-width:6.58573;stroke-linejoin:round;stroke-miterlimit:4;stroke-dasharray:none;stroke-opacity:1;paint-order:stroke fill markers"
       d="m 4.706924,200.1867 c 3.5192919,-3.00227 6.704968,-5.11754 7.079278,-4.70058 0.814325,0.90711 -9.7079096,9.70436 -11.92756397,9.9722 C -0.99408357,205.561 1.1876321,203.189 4.706924,200.1867 Z"
       id="path3558" />
    <path
       style="opacity:0.383901;fill:#e2ff00;fill-opacity:1;fill-rule:evenodd;stroke:none;stroke-width:2.22643;stroke-linejoin:round;stroke-miterlimit:4;stroke-dasharray:none;stroke-opacity:1;paint-order:stroke fill markers"
       d="m -0.69838352,215.18464 c -0.33565298,-0.30866 3.44038812,-3.46287 4.27622812,-3.57203 0.4051947,-0.0529 0.8299349,-0.4485 0.9438663,-0.87909 0.134254,-0.50739 0.4951216,-0.72193 1.0254931,-0.60965 0.4500898,0.0953 0.7258624,-0.006 0.6128285,-0.22471 -0.1130349,-0.21886 0.097596,-0.51421 0.4680754,-0.65631 0.3704783,-0.14211 1.0871021,-1.04747 1.5924994,-2.01192 l 0.9189048,-1.75355 -0.4626463,1.96392 c -0.3941503,1.67314 -0.8501458,2.25995 -3.0798657,3.96344 -2.9901226,2.28441 -5.97363022,4.07579 -6.29538362,3.7799 z"
       id="path3560" />
    <path
       style="opacity:0.383901;fill:#399959;fill-opacity:0.864865;fill-rule:evenodd;stroke:none;stroke-width:1.10636;stroke-linejoin:round;stroke-miterlimit:4;stroke-dasharray:none;stroke-opacity:1;paint-order:stroke fill markers"
       d="m 4.2290572,205.32934 c 4.1503887,-6.71964 4.9424631,-8.16943 4.5082441,-8.25172 -0.2897244,-0.0549 -0.3400674,-0.18559 -0.111874,-0.29041 0.501584,-0.23041 1.331785,-0.29756 1.046481,-0.0846 -0.111637,0.0833 0.129705,0.23457 0.5363137,0.33613 0.719515,0.17971 0.610401,0.39329 -4.0792701,7.98454 -4.7017574,7.61082 -4.8442108,7.80787 -5.87673388,8.12895 -1.05400052,0.32776 -1.03830897,0.29689 3.97683918,-7.82284 z"
       id="path3562" />
    <path
       style="opacity:0.383901;fill:#ff00db;fill-opacity:1;fill-rule:evenodd;stroke:none;stroke-width:2.22643;stroke-linejoin:round;stroke-miterlimit:4;stroke-dasharray:none;stroke-opacity:1;paint-order:stroke fill markers"
       d="m 9.5426543,204.9313 c 0.2481417,-0.93781 0.4683517,-1.33697 0.4893537,-0.88701 0.021,0.44997 -0.1820231,1.21727 -0.4511676,1.70512 -0.2691445,0.48785 -0.2863279,0.1197 -0.038186,-0.81811 z"
       id="path3564" />
    <path
       style="opacity:0.383901;fill:#00ff6e;fill-opacity:1;fill-rule:evenodd;stroke:none;stroke-width:2.22643;stroke-linejoin:round;stroke-miterlimit:4;stroke-dasharray:none;stroke-opacity:1;paint-order:stroke fill markers"
       d="m -6.4062366,249.98793 c 0.1131567,-0.42766 2.9376654,-2.43775 3.5350679,-2.51577 0.2686854,-0.0351 0.4305113,0.15544 0.3596134,0.42338 -0.070898,0.26795 -0.490455,0.53439 -0.9323511,0.5921 -0.4418962,0.0577 -1.0398549,0.45328 -1.3287961,0.87904 -0.5100738,0.75161 -1.7975886,1.24127 -1.6335341,0.62125 z"
       id="path3566" />
    <path
       style="opacity:0.383901;fill:#00ff6e;fill-opacity:1;fill-rule:evenodd;stroke:none;stroke-width:0.535416;stroke-linejoin:round;stroke-miterlimit:4;stroke-dasharray:none;stroke-opacity:1;paint-order:stroke fill markers"
       d="m 2.8131547,260.56503 c 0.054208,-0.0903 0.1354068,-0.13209 0.1804407,-0.0927 0.045034,0.0394 0.09888,-0.0118 0.1196777,-0.11395 0.020789,-0.10206 0.057057,-0.15149 0.080596,-0.10986 0.023541,0.0417 0.372471,-0.32396 0.7754055,-0.81245 0.4029346,-0.48848 0.8139486,-0.95778 0.9133634,-1.04287 0.099418,-0.0852 0.4900128,-0.58946 0.8679931,-1.12079 l 0.6872369,-0.96605 0.297702,-1.67927 c 0.1637372,-0.92359 0.4694898,-3.12431 0.6794526,-4.89051 0.2099607,-1.76616 0.4686966,-3.69586 0.5749666,-4.28818 0.1062689,-0.59233 0.1575709,-1.04654 0.114004,-1.00935 -0.082986,0.0708 0.3533591,-2.95277 0.4956806,-3.43479 0.045153,-0.15293 0.044519,-0.36723 -0.00141,-0.47622 -0.066288,-0.15731 -0.050894,-0.20325 0.074645,-0.22278 0.115654,-0.018 0.1240064,0.22694 0.031079,0.91142 -0.148239,1.09191 -0.937673,7.35238 -1.0511965,8.33634 -0.042627,0.36947 -0.1614961,1.27854 -0.2641556,2.02016 -0.1026595,0.74164 -0.2119371,1.58324 -0.2428397,1.87025 -0.1692581,1.572 -0.443807,3.14759 -0.5513859,3.16432 -0.065474,0.0101 -0.1373577,0.21077 -0.1668948,0.46575 -0.028533,0.24632 -0.097754,0.45498 -0.1538156,0.46371 -0.056059,0.009 -0.1233289,0.12088 -0.1494793,0.24926 -0.026151,0.12839 -0.1736523,0.39465 -0.3277818,0.5917 -0.1541293,0.19706 -0.2679485,0.29447 -0.2529291,0.21644 0.015019,-0.078 -0.02262,-0.065 -0.083646,0.0291 -0.1642527,0.25301 -1.3003494,1.17959 -1.2756746,1.04043 0.011637,-0.0657 -0.052217,0.008 -0.1418723,0.16247 -0.089676,0.15505 -0.2269935,0.29184 -0.3051502,0.304 -0.07816,0.0122 -0.2228705,0.1336 -0.321585,0.2699 -0.1992075,0.27503 -0.7606961,0.42842 -0.6024303,0.16457 z"
       id="path3568" />
    <path
       style="opacity:0.383901;fill:#ff0000;fill-opacity:1;fill-rule:evenodd;stroke:none;stroke-width:0.968895;stroke-linejoin:round;stroke-miterlimit:4;stroke-dasharray:none;stroke-opacity:1;paint-order:stroke fill markers"
       d="m 7.7026553,171.43068 c -0.057597,0.7245 -2.3436037,3.78586 -2.5645403,3.43436 -0.4460143,-0.70957 -1.5796858,12.96722 -1.2687283,15.30613 0.043275,0.3255 0.2095457,2.14559 0.3694876,4.04465 0.2514187,2.98516 1.0155293,11.5501 1.2371991,13.86778 0.040664,0.4252 0.074565,1.53867 0.075325,2.4744 0.00167,2.0428 -0.3693477,1.44928 -0.4720121,-0.75509 -0.036435,-0.78236 -0.1368896,-1.95517 -0.2232345,-2.60624 -0.086352,-0.65109 -0.1920001,-1.6115 -0.2348013,-2.13427 -0.0428,-0.52277 -0.1184604,-1.21446 -0.1681365,-1.53708 -0.049683,-0.32262 -0.1187717,-0.97695 -0.1535412,-1.45404 -0.034778,-0.4771 -0.1071002,-1.08968 -0.1607378,-1.36127 -0.053638,-0.27157 -0.1179266,-1.00864 -0.1428747,-1.63794 -0.024944,-0.6293 -0.065084,-1.13537 -0.089184,-1.12457 -0.092562,0.0415 -0.5652121,-4.68612 -0.6771577,-6.7733 -0.028385,-0.52923 -0.099484,-1.18717 -0.1579877,-1.46206 -0.058506,-0.27494 -0.1303102,-1.00865 -0.1595563,-1.63051 -0.029254,-0.62188 -0.1035887,-1.31973 -0.1652006,-1.5508 -0.061607,-0.23107 -0.1381441,-0.79482 -0.1700773,-1.25278 -0.031936,-0.45797 -0.114798,-0.84464 -0.1841366,-0.85926 -0.069319,-0.015 0.015363,-0.24055 0.1882844,-0.50209 0.1895351,-0.28666 0.2071691,-0.42748 0.044411,-0.35462 -0.3026867,0.13556 -0.4490669,-0.74813 -0.5060712,-3.05484 -0.053941,-2.18293 0.8978862,-4.54249 2.3405226,-5.80214 0.3135456,-0.2738 0.5102333,-0.58354 0.4370662,-0.68836 -0.097722,-0.14006 0.1248825,-0.30603 0.838889,-0.6257 0.8458921,-0.37876 1.0020344,-0.51809 1.2042739,-1.07461 0.2278348,-0.62695 0.7942486,-1.28492 0.7625182,-0.88573 z"
       id="path3570" />
    <path
       style="opacity:0.383901;fill:#5bff00;fill-opacity:1;fill-rule:evenodd;stroke:none;stroke-width:0.638279;stroke-linejoin:round;stroke-miterlimit:4;stroke-dasharray:none;stroke-opacity:1;paint-order:stroke fill markers"
       d="m 1.9689344,286.58643 c -0.2891725,-0.7035 -0.071505,-2.21445 0.8355823,-5.80023 0.1518895,-0.60043 0.3972461,-1.65157 0.545236,-2.33586 0.6878999,-3.18079 1.8343795,-8.29965 2.0795412,-9.28486 0.1493661,-0.60024 0.286955,-1.20725 0.3057534,-1.34891 0.018803,-0.14167 0.270887,-1.28511 0.5601955,-2.54099 1.019248,-4.42453 1.3513894,-5.92192 1.4609715,-6.58651 0.3965254,-2.40478 1.4921698,-4.89789 2.3920677,-5.44307 0.358106,-0.21696 3.134573,-1.05123 5.764281,-1.73207 0.329612,-0.0853 0.872916,-0.25715 1.207339,-0.3818 0.334425,-0.12465 0.791499,-0.24035 1.015719,-0.2571 0.224221,-0.0168 0.427909,-0.0742 0.452643,-0.12773 0.02473,-0.0535 0.354528,-0.15065 0.732881,-0.21589 0.378352,-0.0652 0.711812,-0.17031 0.741023,-0.23349 0.02921,-0.0632 0.102009,-0.0891 0.161789,-0.0577 0.09971,0.0524 1.143181,-0.22773 1.981914,-0.53222 0.190542,-0.0692 0.71061,-0.20724 1.155707,-0.30682 l 0.809264,-0.18105 -0.244893,0.39071 c -0.155687,0.24839 -0.342236,0.38832 -0.512127,0.38414 -0.146977,-0.004 -0.523663,0.10486 -0.837072,0.24106 -0.313409,0.1362 -0.652396,0.25955 -0.753303,0.27411 -0.578418,0.0834 -1.426213,0.31331 -1.831339,0.49659 -0.187694,0.0849 -0.454223,0.1407 -0.592284,0.12397 -0.138057,-0.0168 -0.501585,0.0785 -0.807829,0.21157 -0.306244,0.13309 -0.59873,0.21992 -0.649967,0.19296 -0.05124,-0.027 -0.448321,0.0793 -0.88241,0.23623 -0.434089,0.15689 -0.832524,0.26247 -0.885412,0.23464 -0.05289,-0.0279 -0.298918,0.054 -0.546742,0.18188 -0.24782,0.12786 -0.70216,0.26315 -1.009646,0.30063 -0.307477,0.0375 -0.788206,0.16559 -1.068272,0.28471 -0.280064,0.11911 -0.640948,0.23215 -0.801963,0.25119 -0.161018,0.0191 -0.397446,0.0482 -0.525408,0.0648 -0.127961,0.0166 -0.358892,0.10843 -0.513184,0.20411 -0.154292,0.0957 -0.265549,0.13842 -0.24724,0.095 0.01832,-0.0434 -0.211781,0.0328 -0.511314,0.16945 -0.299532,0.13663 -0.626284,0.22719 -0.726116,0.20124 -0.09983,-0.0259 -0.189399,-0.0324 -0.199043,-0.0144 -0.0096,0.018 -0.2840661,0.48883 -0.6098262,1.04615 -0.4132557,0.707 -0.7366907,1.62537 -1.0699735,3.03811 -0.2627199,1.11364 -0.5182904,2.18849 -0.5679327,2.38856 -0.049639,0.20007 -0.1536394,0.62096 -0.2311028,0.93531 -0.077461,0.31436 -0.1875546,0.87341 -0.2446454,1.24235 -0.057091,0.36893 -0.3471608,1.72178 -0.6445996,3.00632 -0.2974379,1.28454 -0.5656355,2.47509 -0.5959933,2.64567 -0.030356,0.17057 -0.1745385,0.80103 -0.3204003,1.40101 -0.1458627,0.59998 -0.2935227,1.20775 -0.3281354,1.35058 -0.034611,0.14285 -0.1040036,0.46935 -0.1542038,0.72557 -0.0502,0.25621 -0.1925299,0.90948 -0.3162883,1.45171 -0.1237587,0.54222 -0.2386649,1.10163 -0.2553473,1.24314 -0.016683,0.1415 -0.156155,0.74865 -0.3099387,1.34923 -0.1537834,0.60057 -0.4882731,2.04853 -0.743313,3.2177 -0.2550399,1.16916 -0.6782916,3.01393 -0.9405613,4.09949 -0.6751489,2.7945 -0.5102813,3.45614 0.8273642,3.32039 0.3302767,-0.0335 0.6135485,-0.089 0.6294723,-0.12323 0.036993,-0.0796 1.3088374,-0.43646 1.5234462,-0.42745 0.089039,0.004 0.483416,-0.13249 0.8763792,-0.30271 0.9561629,-0.41419 1.0795427,-0.40514 0.8629407,0.0633 -0.1737212,0.37574 -0.2537424,0.4169 -1.4498605,0.74589 -0.6962968,0.19151 -1.3183518,0.35597 -1.3823452,0.36544 -0.06399,0.009 -0.4188791,0.0934 -0.7886318,0.18645 -1.2271141,0.30885 -1.6558753,0.2789 -1.8228503,-0.12733 z"
       id="path3572" />
    <path
       style="opacity:0.383901;fill:#ff54fa;fill-opacity:0.826255;fill-rule:evenodd;stroke:none;stroke-width:4.21958;stroke-linejoin:round;stroke-miterlimit:4;stroke-dasharray:none;stroke-opacity:1;paint-order:stroke fill markers"
       d="m 0.0532111,181.60866 c 1.3077016,0.62407 2.406832,2.9413 2.3377132,4.92848 -0.032208,0.92666 0.7204574,2.46281 1.6725231,3.41369 1.5926022,1.59059 1.5327374,1.65134 -0.7477999,0.76002 -2.45421113,-0.95941 -2.46056864,-0.94973 -0.6263811,0.96548 1.0192292,1.06416 2.2045663,2.22632 2.6340345,2.58255 0.4289409,0.35647 0.6032448,0.92155 0.386239,1.25634 -0.2172972,0.33454 -0.9631108,0.096 -1.6574146,-0.53028 -0.6945649,-0.62641 -0.2926878,0.14329 0.892594,1.70994 1.1855001,1.56686 1.8041618,3.07293 1.3748955,3.34688 -0.4261763,0.27631 -0.026128,2.43032 0.8957702,4.79192 0.9218866,2.3616 1.4020434,4.68817 1.0670394,5.17017 -0.3370156,0.48009 -0.2822518,1.64484 0.1173993,2.58425 0.3996816,0.93939 1.01857,4.45812 1.3753941,7.81944 0.3568242,3.36133 0.8955212,6.61696 1.1970762,7.23473 0.301231,0.61754 -0.360995,0.80696 -1.4728194,0.42 -1.1116796,-0.38687 -1.8644208,-0.94514 -1.6729218,-1.24048 0.1917184,-0.29539 -0.2671264,-2.33488 -1.0193037,-4.53199 -0.9258743,-2.70474 -0.9182546,-3.71335 0.02381,-3.12339 0.7693859,0.48194 0.6140011,0.074 -0.3481888,-0.91276 -0.9567747,-0.98127 -1.2896728,-1.79107 -0.7399703,-1.79964 0.5497154,-0.009 0.2867849,-0.71431 -0.5841734,-1.56829 -0.8711145,-0.85404 -1.1647351,-1.55931 -0.652616,-1.56726 0.5121181,-0.008 0.2522707,-1.35417 -0.5777639,-2.99183 -0.9500321,-1.87457 -1.047994,-3.12119 -0.2644905,-3.36573 0.7240977,-0.22602 0.7384742,-0.62999 0.035958,-0.96501 -1.0719199,-0.51163 -1.089344,-1.79686 -0.03703,-2.72381 0.2039342,-0.1793 -0.3246018,-1.82195 -1.1741008,-3.6501 -0.849538,-1.82817 -1.1423127,-3.48495 -0.6507617,-3.68186 0.4915431,-0.19697 0.1597712,-1.0777 -0.7375482,-1.95743 -0.89733738,-0.87973 -1.23235277,-1.75932 -0.74464193,-1.95465 0.48745532,-0.19551 0.42672993,-1.48707 -0.13578155,-2.87081 -1.28931442,-3.17233 -1.39868372,-8.13629 -0.1663278,-7.54817 z"
       id="path3574" />
    <path
       style="opacity:0.383901;fill:#5bff00;fill-opacity:1;fill-rule:evenodd;stroke:none;stroke-width:0.78716;stroke-linejoin:round;stroke-miterlimit:4;stroke-dasharray:none;stroke-opacity:1;paint-order:stroke fill markers"
       d=""
       id="path3576" />
    <g
       aria-label="M"
       id="text74"
       style="font-style:normal;font-variant:normal;font-weight:normal;font-stretch:semi-condensed;font-size:10.5833px;line-height:1.25;font-family:Bahnschrift;-inkscape-font-specification:'Bahnschrift Semi-Condensed';letter-spacing:0px;display:inline;fill:#fff200;fill-opacity:0.772549;stroke:#8c05eb;stroke-width:0.264519;stroke-miterlimit:4;stroke-dasharray:0.529039, 0.264519;stroke-dashoffset:0;stroke-opacity:0.749035;paint-order:stroke fill markers"
       transform="matrix(1.4595497,-0.46773634,0.36587999,1.536803,-109.96002,-260.08176)">
      <path
         d="m 6.9492623,287.805 h 0.9198375 v 7.51373 H 6.9079213 v -5.65856 l 0.072347,0.33073 -1.5606232,4.18578 H 4.7426856 l -1.5606232,-4.08243 0.08785,-0.43408 v 5.65856 H 2.2880629 V 287.805 h 0.9456757 l 1.8448428,4.83689 z"
         style="font-style:normal;font-variant:normal;font-weight:normal;font-stretch:semi-condensed;font-family:Bahnschrift;-inkscape-font-specification:'Bahnschrift Semi-Condensed';fill:#fff200;fill-opacity:0.772549;stroke:#8c05eb;stroke-width:0.264519;stroke-miterlimit:4;stroke-dasharray:0.529039, 0.264519;stroke-dashoffset:0;stroke-opacity:0.749035;paint-order:stroke fill markers"
         id="path899" />
    </g>
    <g
       aria-label="s"
       transform="matrix(3.8873192,1.0679443,-1.096936,4.9488311,134.52147,-483.09218)"
       id="text905"
       style="font-style:normal;font-variant:normal;font-weight:normal;font-stretch:normal;font-size:4.54702px;line-height:1.25;font-family:sans-serif;-inkscape-font-specification:sans-serif;display:inline;fill:#29d2f0;fill-opacity:0.830116;stroke:#6b25e9;stroke-width:0.0695052;stroke-miterlimit:4;stroke-dasharray:0.13901, 0.0695052;stroke-dashoffset:0;stroke-opacity:0.779923;paint-order:stroke fill markers">
      <path
         d="m 9.838318,154.48249 q -0.2042607,0 -0.3840989,-0.04 -0.1776179,-0.04 -0.3330337,-0.11989 -0.1554157,-0.0799 -0.2864089,-0.19982 v 0 L 9.1034236,153.792 v 0 q 0.1864989,0.1421 0.3707775,0.21314 0.1842787,0.071 0.3641169,0.071 0.268647,0 0.401861,-0.0821 0.135433,-0.0844 0.135433,-0.25088 0,-0.11101 -0.07327,-0.16652 -0.07327,-0.0555 -0.182058,-0.0733 -0.108792,-0.02 -0.3063915,-0.0355 -0.017762,0 -0.037744,0 -0.019982,-0.002 -0.037744,-0.004 -0.00888,0 -0.017762,0 -0.00888,-0.002 -0.017762,-0.002 -0.2242427,-0.0178 -0.3796584,-0.0644 -0.1554157,-0.0488 -0.2597663,-0.17984 -0.1021303,-0.13099 -0.1021303,-0.37521 0,-0.24423 0.09991,-0.40631 0.09991,-0.16207 0.2975101,-0.242 0.1976,-0.0822 0.4951101,-0.0822 0.1798383,0 0.3419143,0.0333 0.164297,0.0333 0.313052,0.0999 0.148755,0.0644 0.286409,0.16429 v 0 l -0.273088,0.33082 v 0 q -0.173177,-0.11102 -0.341914,-0.16652 -0.166517,-0.0555 -0.3263733,-0.0555 -0.2309034,0 -0.3463551,0.0799 -0.1154517,0.0777 -0.1154517,0.23534 0,0.0932 0.064386,0.13988 0.066607,0.0466 0.1665169,0.0622 0.09991,0.0155 0.2841887,0.0266 0.013321,0.002 0.026643,0.002 0.015542,0 0.031083,0.002 0.00666,0 0.013321,0 0.00666,0 0.013321,0.002 0.2420045,0.0155 0.4107415,0.0644 0.170957,0.0488 0.286409,0.19315 0.115452,0.14432 0.115452,0.41741 0,0.24866 -0.106571,0.41296 -0.106571,0.16207 -0.321933,0.24422 -0.213141,0.0822 -0.537294,0.0822 z"
         style="font-style:normal;font-variant:normal;font-weight:normal;font-stretch:normal;font-family:Bahnschrift;-inkscape-font-specification:Bahnschrift;fill:#29d2f0;fill-opacity:0.830116;stroke:#6b25e9;stroke-width:0.0695052;stroke-miterlimit:4;stroke-dasharray:0.13901, 0.0695052;stroke-dashoffset:0;stroke-opacity:0.779923;paint-order:stroke fill markers"
         id="path907" />
    </g>
    <g
       id="use4978"
       style="fill:#15d200;fill-opacity:1;stroke:#000000;stroke-width:1.00104;stroke-miterlimit:4;stroke-dasharray:0, 11.0114;stroke-dashoffset:0;stroke-opacity:1"
       transform="matrix(0.15994333,-0.0113509,0.01099839,0.15497619,6.8287057,228.86876)">
      <title
         id="title946">Up Arrow</title>
      <path
         id="rect948"
         style="stroke:#ffffff;stroke-width:0.264583"
         d="M 1.7197916,0.13229166 H 17.330209 c 0.879475,0 1.5875,0.70802499 1.5875,1.58749994 V 17.330209 c 0,0.879475 -0.708025,1.5875 -1.5875,1.5875 H 1.7197916 c -0.87947495,0 -1.58749994,-0.708025 -1.58749994,-1.5875 V 1.7197916 c 0,-0.87947495 0.70802499,-1.58749994 1.58749994,-1.58749994 z" />
      <path
         d="m 9.525,2.38125 5.820833,5.8208333 V 12.170833 L 11.1125,7.9375 v 8.466667 H 7.9375 V 7.9375 L 3.7041667,12.170833 V 8.2020833 Z"
         style="fill:#ffffff;stroke:none;stroke-width:0.264583"
         id="path950" />
    </g>
    <g
       id="use5008"
       style="fill:#c33333;fill-opacity:1;stroke:#000000;stroke-opacity:0"
       transform="matrix(0.15006472,-0.01059899,0.01112824,0.15755806,0.12094565,232.06318)">
      <title
         id="title937">Down Arrow</title>
      <path
         id="rect939"
         style="stroke:#ffffff;stroke-width:0.264583"
         d="M 1.7197916,0.13229166 H 17.330209 c 0.879475,0 1.5875,0.70802499 1.5875,1.58749994 V 17.330209 c 0,0.879475 -0.708025,1.5875 -1.5875,1.5875 H 1.7197916 c -0.87947495,0 -1.58749994,-0.708025 -1.58749994,-1.5875 V 1.7197916 c 0,-0.87947495 0.70802499,-1.58749994 1.58749994,-1.58749994 z" />
      <path
         d="M 9.525,16.66875 3.7041667,10.847917 V 6.8791667 L 7.9375,11.1125 V 2.6458333 h 3.175 V 11.1125 l 4.233333,-4.2333333 v 3.9687503 z"
         style="fill:#ffffff;stroke:none;stroke-width:0.264583"
         id="path942" />
    </g>
    <path
       id="rect1293"
       style="opacity:1;mix-blend-mode:normal;fill:url(#linearGradient5046);fill-opacity:1;stroke:none;stroke-width:0.0651829;stroke-miterlimit:4;stroke-dasharray:1.56439, 0.0651829;stroke-dashoffset:0;stroke-opacity:1;paint-order:stroke fill markers"
       transform="matrix(0.99921742,-0.03955424,0.17987473,0.98368953,0,0)"
       d="m -42.039158,233.96094 h 9.986161 v 0.4514 h -9.986161 z" />
  </g>
  <g
     style="display:none"
     inkscape:label="components"
     id="layer2"
     inkscape:groupmode="layer">
    <circle
       inkscape:label="CV_Out"
       cy="74.25"
       cx="5.0799999"
       id="circle910"
       style="fill:#00ff00;fill-rule:evenodd;stroke-width:0.264582"
       r="4" />
    <circle
       inkscape:label="CV_Out"
       cy="58.75"
       cx="5.0799999"
       id="circle914"
       style="fill:#0000ff;fill-rule:evenodd;stroke-width:0.264582"
       r="4" />
    <circle
       inkscape:label="CV_Out"
       cy="85.5"
       cx="5.0799999"
       id="circle918"
       style="fill:#0000ff;fill-rule:evenodd;stroke-width:0.264582"
       r="3.4000001" />
    <circle
       style="fill:#00ff00;fill-rule:evenodd;stroke-width:0.264582"
       id="circle922"
       cx="5.0799999"
       cy="16.99971"
       inkscape:label="CV_Out"
       r="3.4000001" />
    <circle
       inkscape:label="CV_Out"
       cy="95.5"
       cx="5.0799999"
       id="circle884"
       style="fill:#0000ff;fill-rule:evenodd;stroke-width:0.264582"
       r="3.4000001" />
    <circle
       inkscape:label="CV_Out"
       cy="105.5"
       cx="5.0799999"
       id="circle886"
       style="fill:#0000ff;fill-rule:evenodd;stroke-width:0.264582"
       r="3.4000001" />
    <circle
       inkscape:label="CV_Out"
       cy="115.5"
       cx="5.0799999"
       id="circle888"
       style="fill:#0000ff;fill-rule:evenodd;stroke-width:0.264582"
       r="3.4000001" />
    <circle
       style="fill:#00ff00;fill-rule:evenodd;stroke-width:0.264582"
       id="circle890"
       cx="5.0799999"
       cy="26.99971"
       inkscape:label="CV_Out"
       r="3.4000001" />
    <circle
       style="fill:#00ff00;fill-rule:evenodd;stroke-width:0.264582"
       id="circle892"
       cx="5.0799999"
       cy="36.999706"
       inkscape:label="CV_Out"
       r="3.4000001" />
    <circle
       style="fill:#00ff00;fill-rule:evenodd;stroke-width:0.264582"
       id="circle894"
       cx="5.0799999"
       cy="46.999706"
       inkscape:label="CV_Out"
       r="3.4000001" />
  </g>
</svg>
