<?xml version="1.0" encoding="UTF-8" standalone="no"?>
<svg
   xmlns:dc="http://purl.org/dc/elements/1.1/"
   xmlns:cc="http://creativecommons.org/ns#"
   xmlns:rdf="http://www.w3.org/1999/02/22-rdf-syntax-ns#"
   xmlns:svg="http://www.w3.org/2000/svg"
   xmlns="http://www.w3.org/2000/svg"
   xmlns:xlink="http://www.w3.org/1999/xlink"
   xmlns:sodipodi="http://sodipodi.sourceforge.net/DTD/sodipodi-0.dtd"
   xmlns:inkscape="http://www.inkscape.org/namespaces/inkscape"
   sodipodi:docname="Split16.svg"
   inkscape:version="1.0.2 (e86c870879, 2021-01-15)"
   id="svg8"
   version="1.1"
   viewBox="0 0 10.16 128.5"
   height="128.5mm"
   width="10.16mm">
  <defs
     id="defs2">
    <linearGradient
       inkscape:collect="always"
       id="linearGradient1084">
      <stop
         style="stop-color:#999999;stop-opacity:1;"
         offset="0"
         id="stop1088" />
      <stop
         style="stop-color:#999999;stop-opacity:0;"
         offset="1"
         id="stop1090" />
    </linearGradient>
    <linearGradient
       inkscape:collect="always"
       xlink:href="#linearGradient1084"
       id="linearGradient1086"
       x1="0"
       y1="232.75"
       x2="10.16"
       y2="232.75"
       gradientUnits="userSpaceOnUse"
       gradientTransform="matrix(0.99398031,0,0,1,0.00708658,0.06289401)" />
    <filter
       inkscape:collect="always"
       style="color-interpolation-filters:sRGB"
       id="filter1987"
       x="-0.11885917"
       width="1.2377183"
       y="-0.034341429"
       height="1.0686829">
      <feGaussianBlur
         inkscape:collect="always"
         stdDeviation="1.17837"
         id="feGaussianBlur1989" />
    </filter>
  </defs>
  <sodipodi:namedview
     inkscape:snap-global="true"
     inkscape:snap-bbox-midpoints="true"
     inkscape:snap-bbox="true"
     inkscape:document-rotation="0"
     inkscape:window-maximized="1"
     inkscape:window-y="-8"
     inkscape:window-x="-8"
     inkscape:window-height="1017"
     inkscape:window-width="1920"
     inkscape:lockguides="false"
     inkscape:guide-bbox="true"
     showguides="true"
     units="mm"
     showgrid="false"
     inkscape:current-layer="layer1"
     inkscape:document-units="mm"
     inkscape:cy="74.042698"
     inkscape:cx="-18.774912"
     inkscape:zoom="5.6568542"
     inkscape:pageshadow="2"
     inkscape:pageopacity="0.0"
     borderopacity="1.0"
     bordercolor="#666666"
     pagecolor="#ffffff"
     id="base"
     inkscape:bbox-nodes="false"
     inkscape:bbox-paths="false"
     inkscape:snap-grids="false"
     inkscape:snap-others="false"
     inkscape:object-nodes="false"
     inkscape:snap-nodes="false"
     inkscape:snap-bbox-edge-midpoints="false"
     showborder="true"
     inkscape:pagecheckerboard="true"
     borderlayer="true">
    <sodipodi:guide
       position="17.773424,109.22987"
       orientation="0,1"
       id="guide837"
       inkscape:label=""
       inkscape:locked="false"
       inkscape:color="rgb(0,0,255)" />
    <sodipodi:guide
       inkscape:color="rgb(0,0,255)"
       inkscape:locked="false"
       inkscape:label=""
       id="guide875"
       orientation="0,1"
       position="-9.0869999,33.000001" />
    <sodipodi:guide
       position="4.2249523,98.841497"
       orientation="0,1"
       id="guide891"
       inkscape:label=""
       inkscape:locked="false"
       inkscape:color="rgb(0,0,255)" />
    <sodipodi:guide
       position="27.502035,43.000482"
       orientation="0,1"
       id="guide893"
       inkscape:label=""
       inkscape:locked="false"
       inkscape:color="rgb(0,0,255)" />
    <sodipodi:guide
       position="-21.247928,81.500003"
       orientation="0,1"
       id="guide901"
       inkscape:label=""
       inkscape:locked="false"
       inkscape:color="rgb(0,0,255)" />
    <sodipodi:guide
       position="-4.8854,23.000001"
       orientation="0,1"
       id="guide3392"
       inkscape:label=""
       inkscape:locked="false"
       inkscape:color="rgb(0,0,255)" />
    <sodipodi:guide
       inkscape:color="rgb(0,0,255)"
       inkscape:locked="false"
       inkscape:label=""
       id="guide907"
       orientation="0,1"
       position="-14.335827,13.000001" />
    <sodipodi:guide
       position="0,63.580236"
       orientation="0,1"
       id="guide908"
       inkscape:label=""
       inkscape:locked="false"
       inkscape:color="rgb(0,0,255)" />
    <sodipodi:guide
       inkscape:color="rgb(0,0,255)"
       inkscape:locked="false"
       inkscape:label=""
       id="guide944"
       orientation="-1,0"
       position="3.8364585,83.586982" />
    <sodipodi:guide
       position="-37.318825,69.750003"
       orientation="0,1"
       id="guide882"
       inkscape:label=""
       inkscape:locked="false"
       inkscape:color="rgb(0,0,255)" />
    <sodipodi:guide
       position="5.5888095,26.729588"
       orientation="0,1"
       id="guide1003"
       inkscape:label=""
       inkscape:locked="false"
       inkscape:color="rgb(0,0,255)" />
    <sodipodi:guide
       position="23.573173,13.000001"
       orientation="0,1"
       id="guide1005"
       inkscape:label=""
       inkscape:locked="false"
       inkscape:color="rgb(0,0,255)" />
    <sodipodi:guide
       position="12.652406,37.000001"
       orientation="0,1"
       id="guide1007"
       inkscape:label=""
       inkscape:locked="false"
       inkscape:color="rgb(0,0,255)" />
    <sodipodi:guide
       position="-19.270133,63.580236"
       orientation="0,1"
       id="guide1009"
       inkscape:label=""
       inkscape:locked="false"
       inkscape:color="rgb(0,0,255)" />
    <sodipodi:guide
       position="12.907367,95.500004"
       orientation="0,1"
       id="guide1013"
       inkscape:label=""
       inkscape:locked="false"
       inkscape:color="rgb(0,0,255)" />
    <sodipodi:guide
       position="12.556796,115.5"
       orientation="0,1"
       id="guide1017"
       inkscape:label=""
       inkscape:locked="false"
       inkscape:color="rgb(0,0,255)" />
    <sodipodi:guide
       position="34.050138,13.000001"
       orientation="0,1"
       id="guide911"
       inkscape:label=""
       inkscape:locked="false"
       inkscape:color="rgb(0,0,255)" />
    <sodipodi:guide
       position="0,128.50001"
       orientation="0,38.399999"
       id="guide912" />
    <sodipodi:guide
       position="10.16,128.50001"
       orientation="485.66929,0"
       id="guide914" />
    <sodipodi:guide
       position="10.16,0"
       orientation="0,-38.399999"
       id="guide916" />
    <sodipodi:guide
       position="0,0"
       orientation="-485.66929,0"
       id="guide918" />
    <sodipodi:guide
       position="0,128.50001"
       orientation="0,38.399999"
       id="guide920" />
    <sodipodi:guide
       position="10.16,119.4262"
       orientation="485.66929,0"
       id="guide922" />
    <sodipodi:guide
       position="10.16,0"
       orientation="0,-38.399999"
       id="guide924" />
    <sodipodi:guide
       position="0,115.5"
       orientation="-485.66929,0"
       id="guide926" />
    <inkscape:grid
       type="xygrid"
       id="grid888" />
    <sodipodi:guide
       position="-26.921356,107.00261"
       orientation="1,0"
       id="guide2029" />
  </sodipodi:namedview>
  <metadata
     id="metadata5">
    <rdf:RDF>
      <cc:Work
         rdf:about="">
        <dc:format>image/svg+xml</dc:format>
        <dc:type
           rdf:resource="http://purl.org/dc/dcmitype/StillImage" />
        <dc:title />
      </cc:Work>
    </rdf:RDF>
  </metadata>
  <g
     transform="translate(0,-168.5)"
     id="layer1"
     inkscape:groupmode="layer"
     inkscape:label="Layer 1"
     style="display:inline">
    <rect
       style="display:inline;opacity:0.380805;mix-blend-mode:normal;fill:url(#linearGradient1086);fill-opacity:1;fill-rule:nonzero;stroke:none;stroke-width:1.12759;stroke-miterlimit:4;stroke-dasharray:none"
       id="rect63"
       width="10.098839"
       height="128.5"
       x="0.0070856828"
       y="168.56287"
       inkscape:label="Merge BG" />
    <path
       style="display:inline;opacity:0.743034;fill:#d1d50d;fill-opacity:0.667954;fill-rule:evenodd;stroke:none;stroke-width:1.9289;stroke-linejoin:round;stroke-miterlimit:4;stroke-dasharray:none;stroke-opacity:1;paint-order:stroke fill markers"
       d="m 10.469113,187.79733 c -0.04929,-0.59325 -0.439573,-1.85988 -0.8673028,-2.81494 -0.4277216,-0.95493 -0.8896466,-2.0354 -1.0264954,-2.40105 -0.1368268,-0.36572 -0.5169673,-1.06078 -0.8447294,-1.54474 -0.8136185,-1.20151 -1.351482,-2.25065 -1.5975149,-3.11592 -0.1135502,-0.39945 -0.5829025,-1.13544 -1.0430408,-1.63573 -0.4601311,-0.50038 -1.5749887,-2.55025 -2.4774634,-4.55542 -0.902477,-2.00519 -1.76762059,-3.10116 -1.92254999,-2.43535 -0.2308673,0.99197 -0.34585887,3.93547 -0.6373366,16.31308 -0.1956085,8.3065 -0.3241609,15.10011 -0.2856661,15.0969 0.03859,-0.003 0.00602,0.88996 -0.07254,1.98499 -0.1254904,1.7528 -0.124936,2.11233 0.00501,3.00751 0.081012,0.55914 2.54245429,-0.009 5.46960769,-1.26469 2.9271391,-1.25474 5.2768467,-2.56577 5.2215387,-2.91344 -0.124412,-0.78213 -0.143416,-6.43719 -0.02181,-6.50207 0.126012,-0.0671 0.20746,-5.92884 0.100297,-7.21915 z"
       id="path3552-04" />
    <rect
       style="display:none;opacity:1;fill:#00ff54;fill-opacity:0.661538;stroke:none;stroke-width:1.131;stroke-miterlimit:4;stroke-dasharray:none"
       id="rect838"
       width="10.16"
       height="128.5"
       x="-5.5511151e-17"
       y="168.5"
       inkscape:label="Split BG" />
    <rect
       style="display:none;fill:#3b0046;fill-opacity:1;stroke:none;stroke-width:0.337654;stroke-opacity:1"
       id="rect934"
       width="4.0747046"
       height="6.8746209"
       x="20.607883"
       y="289.30594" />
    <rect
       style="display:none;fill:#3b0046;fill-opacity:1;stroke-width:0.138323"
       id="rect896"
       width="4.0755014"
       height="7.353652"
       x="20.607283"
       y="287.83472"
       rx="0.47389561"
       ry="0.57675755" />
    <rect
       style="display:none;fill:none;fill-opacity:1;stroke:#000088;stroke-width:0.409113;stroke-opacity:1"
       id="rect1019"
       width="9.3140593"
       height="112.83746"
       x="0.4231101"
       y="174.30049"
       rx="1.1174084"
       ry="2.1396914" />
    <rect
       style="display:none;fill:#ff7770;fill-opacity:1;stroke-width:0.249031"
       id="rect955"
       width="10.139827"
       height="9.5799189"
       x="-20.962803"
       y="340.17102"
       rx="1.1790502"
       ry="0.75136673" />
    <g
       aria-label="split"
       id="text892"
       style="font-style:normal;font-variant:normal;font-weight:normal;font-stretch:normal;font-size:4.93889px;line-height:1.25;font-family:NeoSans;-inkscape-font-specification:NeoSans;display:none;fill:#000000;fill-opacity:1;stroke:none;stroke-width:0.264583"
       inkscape:label="split pfad">
      <path
         d="m 3.4475213,294.57854 c 0,-0.32597 -0.2173112,-0.48895 -0.627239,-0.71614 l -0.3309057,-0.18274 c -0.3012723,-0.16792 -0.4790723,-0.29633 -0.4790723,-0.51364 0,-0.35066 0.2420056,-0.41487 0.5580946,-0.41487 0.2716389,0 0.5580945,0.0395 0.6865057,0.0543 0.00494,0 0.00988,0 0.014817,0 0.049389,0 0.0889,-0.0198 0.0889,-0.079 v -0.0395 c 0,-0.0445 -0.034572,-0.0741 -0.1037167,-0.084 -0.1679223,-0.0197 -0.3506612,-0.0444 -0.7062613,-0.0444 -0.3901723,0 -0.7556502,0.14817 -0.7556502,0.60749 0,0.33584 0.227189,0.49883 0.5976057,0.70132 l 0.316089,0.17286 c 0.4148668,0.22719 0.5235223,0.33585 0.5235223,0.53834 0,0.40005 -0.2716389,0.49389 -0.627239,0.49389 -0.2024945,0 -0.4889501,-0.0395 -0.7260168,-0.079 -0.00988,0 -0.019756,0 -0.029633,0 -0.04445,0 -0.079022,0.0198 -0.079022,0.0691 v 0.0543 c 0,0.0445 0.039511,0.0642 0.1086556,0.079 0.1778,0.0346 0.493889,0.0691 0.716139,0.0691 0.4593168,0 0.854428,-0.15805 0.854428,-0.68651 z"
         style="fill:#ffffff"
         id="path906" />
      <path
         d="m 5.9120206,294.08465 v -0.32597 c 0,-0.7112 -0.2864557,-1.20015 -0.9680225,-1.20015 -0.2815167,0 -0.6124223,0.0494 -0.8297335,0.0938 -0.059267,0.0148 -0.074083,0.0346 -0.074083,0.0938 v 3.35845 c 0,0.0494 0.034572,0.0938 0.083961,0.0938 h 0.049389 c 0.049389,0 0.083961,-0.0445 0.083961,-0.0938 v -0.9137 c 0.1975556,0.0444 0.493889,0.0741 0.6865057,0.0741 0.6420557,0 0.9680225,-0.40005 0.9680225,-1.1804 z m -0.2173112,0 c 0,0.65193 -0.2074334,0.98778 -0.7507113,0.98778 -0.1926167,0 -0.4988279,-0.0247 -0.6865057,-0.0642 v -2.19286 c 0.1778001,-0.0296 0.449439,-0.0642 0.6865057,-0.0642 0.5531557,0 0.7507113,0.37042 0.7507113,1.00753 z"
         style="fill:#ffffff"
         id="path908" />
      <path
         d="m 6.7960805,295.14157 v -3.48191 c 0,-0.0494 -0.034572,-0.0938 -0.083961,-0.0938 h -0.049389 c -0.049389,0 -0.083961,0.0445 -0.083961,0.0938 v 3.48191 c 0,0.0494 0.034572,0.0938 0.083961,0.0938 h 0.049389 c 0.049389,0 0.083961,-0.0444 0.083961,-0.0938 z"
         style="fill:#ffffff"
         id="path910" />
      <path
         d="m 7.8036069,292.00044 v -0.36548 c 0,-0.0494 -0.04445,-0.0938 -0.093839,-0.0938 h -0.029633 c -0.049389,0 -0.093839,0.0445 -0.093839,0.0938 v 0.36548 c 0,0.0543 0.04445,0.0938 0.093839,0.0938 h 0.029633 c 0.049389,0 0.093839,-0.0395 0.093839,-0.0938 z m 0,3.14113 v -2.4645 c 0,-0.0494 -0.04445,-0.0938 -0.093839,-0.0938 h -0.029633 c -0.049389,0 -0.093839,0.0444 -0.093839,0.0938 v 2.4645 c 0,0.0494 0.04445,0.0938 0.093839,0.0938 h 0.029633 c 0.049389,0 0.093839,-0.0444 0.093839,-0.0938 z"
         style="fill:#333333"
         id="path912" />
      <path
         d="m 9.8779335,295.17121 v -0.0296 c 0,-0.0444 -0.029633,-0.0691 -0.1037167,-0.0691 H 9.5371501 c -0.2173112,0 -0.3407834,-0.0444 -0.3407834,-0.34078 v -1.94593 h 0.5877279 c 0.054328,0 0.093839,-0.0296 0.093839,-0.079 v -0.0494 c 0,-0.0494 -0.039511,-0.0741 -0.093839,-0.0741 H 9.1963667 v -0.50871 c 0,-0.0494 -0.029633,-0.0938 -0.079022,-0.0938 h -0.054328 c -0.054328,0 -0.083961,0.0444 -0.083961,0.0938 v 0.50871 H 8.4901054 c -0.054328,0 -0.093839,0.0247 -0.093839,0.0741 v 0.0494 c 0,0.0494 0.039511,0.079 0.093839,0.079 h 0.4889501 v 1.94593 c 0,0.42474 0.2074334,0.5334 0.5580946,0.5334 0.083961,0 0.1827389,-0.005 0.2568223,-0.0148 0.069144,-0.01 0.083961,-0.0395 0.083961,-0.079 z"
         style="fill:#333333"
         id="path914" />
    </g>
    <g
       aria-label="merge"
       id="text923"
       style="font-style:normal;font-variant:normal;font-weight:normal;font-stretch:normal;font-size:3.88056px;line-height:1.25;font-family:NeoSans;-inkscape-font-specification:NeoSans;display:none;fill:#333333;fill-opacity:1;stroke:none;stroke-width:0.264583"
       inkscape:label="merge orig text"
       transform="translate(14.522758,-0.81851293)">
      <path
         d="m 2.6946755,295.74634 v -1.38924 c 0,-0.46179 -0.2716392,-0.6403 -0.5976062,-0.6403 -0.2056697,0 -0.4307421,0.066 -0.6247701,0.15911 -0.097014,-0.11642 -0.2289531,-0.15911 -0.3686532,-0.15911 -0.20566971,0 -0.43074219,0.0893 -0.58984514,0.16687 v -0.0698 c 0,-0.0427 -0.0271639,-0.0776 -0.0698501,-0.0776 H 0.4129063 c -0.0426862,0 -0.0698501,0.0349 -0.0698501,0.0776 v 1.93252 c 0,0.0388 0.0194028,0.0737 0.0582084,0.0737 h 0.0543278 c 0.0388056,0 0.0582084,-0.0349 0.0582084,-0.0737 v -1.71521 c 0.17850575,-0.0854 0.38417543,-0.16298 0.55492,-0.16298 0.2056697,0 0.3647727,0.11253 0.3647727,0.47343 v 1.40476 c 0,0.0388 0.015522,0.0737 0.054328,0.0737 h 0.058208 c 0.042686,0 0.058208,-0.0349 0.058208,-0.0737 v -1.40476 c 0,-0.13971 -0.023283,-0.25224 -0.058208,-0.34149 0.159103,-0.0776 0.3531309,-0.13194 0.5238756,-0.13194 0.2832809,0 0.4540255,0.12029 0.4540255,0.48895 v 1.38924 c 0,0.0388 0.023283,0.0737 0.06597,0.0737 h 0.038806 c 0.042686,0 0.065969,-0.0349 0.065969,-0.0737 z"
         style="font-style:normal;font-variant:normal;font-weight:normal;font-stretch:normal;font-size:3.88056px;font-family:NeoSans;-inkscape-font-specification:NeoSans;fill:#333333;fill-opacity:1;stroke-width:0.264583"
         id="path933" />
      <path
         d="m 4.7358439,294.74515 v -0.10477 c 0,-0.55104 -0.2367142,-0.92358 -0.7722315,-0.92358 -0.5122339,0 -0.7838731,0.39194 -0.7838731,0.92746 v 0.25612 c 0,0.73342 0.3919366,0.94297 0.873126,0.94297 0.1746252,0 0.3958171,-0.0272 0.582084,-0.066 0.058208,-0.0116 0.073731,-0.031 0.073731,-0.0737 v -0.0272 c 0,-0.0388 -0.027164,-0.0543 -0.058208,-0.0543 -0.00776,0 -0.015522,0.004 -0.023283,0.004 -0.1901475,0.0388 -0.4035783,0.066 -0.5743229,0.066 -0.388056,0 -0.7023813,-0.1397 -0.7023813,-0.79163 v -0.0815 h 1.3116292 c 0.038806,0 0.073731,-0.031 0.073731,-0.0737 z m -0.1707447,-0.0815 H 3.350484 v -0.0194 c 0,-0.46179 0.1823863,-0.77611 0.6131284,-0.77611 0.4385033,0 0.6014868,0.28328 0.6014868,0.77223 z"
         style="font-style:normal;font-variant:normal;font-weight:normal;font-stretch:normal;font-size:3.88056px;font-family:NeoSans;-inkscape-font-specification:NeoSans;fill:#333333;fill-opacity:1;stroke-width:0.264583"
         id="path935" />
      <path
         d="m 6.0358301,293.80606 v -0.031 c 0,-0.0466 -0.042686,-0.0582 -0.1047752,-0.0582 -0.1901474,0 -0.3414892,0.0505 -0.5393978,0.17851 v -0.0815 c 0,-0.0427 -0.027164,-0.0776 -0.06985,-0.0776 h -0.031044 c -0.042686,0 -0.06985,0.0349 -0.06985,0.0776 v 1.93252 c 0,0.0388 0.034925,0.0737 0.073731,0.0737 h 0.023283 c 0.038806,0 0.073731,-0.0349 0.073731,-0.0737 v -1.69969 c 0.228953,-0.14358 0.3919366,-0.1785 0.5393978,-0.1785 0.062089,0 0.1047752,-0.0116 0.1047752,-0.0621 z"
         style="font-style:normal;font-variant:normal;font-weight:normal;font-stretch:normal;font-size:3.88056px;font-family:NeoSans;-inkscape-font-specification:NeoSans;fill:#333333;fill-opacity:1;stroke-width:0.264583"
         id="path937" />
      <path
         d="m 8.0459528,293.84098 v -0.0427 c 0,-0.0388 -0.034925,-0.0621 -0.073731,-0.0621 H 7.1805879 c -0.6635757,0 -0.7993953,0.34925 -0.7993953,0.64805 v 0.031 c 0,0.20567 0.073731,0.35701 0.2017891,0.46178 -0.1125362,0.0505 -0.1629835,0.15522 -0.1629835,0.24836 0,0.11641 0.062089,0.21731 0.2056697,0.26 l 0.027164,0.008 c -0.1280585,0.0776 -0.291042,0.28716 -0.291042,0.5588 v 0.0349 c 0,0.35313 0.2250725,0.60149 0.8226787,0.60149 0.6131285,0 0.8226787,-0.25224 0.8226787,-0.60149 v -0.0349 c 0,-0.31433 -0.2056697,-0.41522 -0.6208896,-0.52388 l -0.6985008,-0.18238 c -0.089253,-0.0233 -0.1125362,-0.0698 -0.1125362,-0.1203 0,-0.0776 0.050447,-0.13194 0.131939,-0.16687 0.1435807,0.0582 0.2716392,0.0893 0.4734283,0.0893 0.6092479,0 0.8032759,-0.26388 0.8032759,-0.63253 v -0.031 c 0,-0.28328 -0.1358196,-0.4191 -0.2134308,-0.48119 h 0.2017892 c 0.038806,0 0.073731,-0.0194 0.073731,-0.0621 z m -0.228953,0.57433 c 0,0.26775 -0.124178,0.48507 -0.6364119,0.48507 -0.5316367,0 -0.6286507,-0.29105 -0.6286507,-0.48507 v -0.031 c 0,-0.24835 0.093133,-0.50059 0.6286507,-0.50059 0.5044728,0 0.6364119,0.22119 0.6364119,0.50059 z m 0.019403,1.57162 c 0,0.28716 -0.1358196,0.45791 -0.6519341,0.45791 -0.4967117,0 -0.6558146,-0.17851 -0.6558146,-0.45791 v -0.0349 c 0,-0.26 0.1125362,-0.40358 0.2832808,-0.51612 l 0.5355173,0.1397 c 0.4074588,0.10478 0.4889506,0.15911 0.4889506,0.37642 z"
         style="font-size:3.88056px;fill:#ffffff;fill-opacity:1"
         id="path939" />
      <path
         d="m 9.990108,294.74515 v -0.10477 c 0,-0.55104 -0.2367142,-0.92358 -0.7722315,-0.92358 -0.5122339,0 -0.7838731,0.39194 -0.7838731,0.92746 v 0.25612 c 0,0.73342 0.3919366,0.94297 0.873126,0.94297 0.1746252,0 0.3958171,-0.0272 0.582084,-0.066 0.058208,-0.0116 0.073731,-0.031 0.073731,-0.0737 v -0.0272 c 0,-0.0388 -0.027164,-0.0543 -0.058208,-0.0543 -0.00776,0 -0.015522,0.004 -0.023283,0.004 -0.1901474,0.0388 -0.4035782,0.066 -0.5743229,0.066 -0.388056,0 -0.7023813,-0.1397 -0.7023813,-0.79163 v -0.0815 h 1.3116292 c 0.038806,0 0.073731,-0.031 0.073731,-0.0737 z m -0.1707447,-0.0815 H 8.6047481 v -0.0194 c 0,-0.46179 0.1823863,-0.77611 0.6131284,-0.77611 0.4385033,0 0.6014868,0.28328 0.6014868,0.77223 z"
         style="font-size:3.88056px;fill:#ffffff;fill-opacity:1"
         id="path941" />
    </g>
    <text
       xml:space="preserve"
       style="font-style:normal;font-variant:normal;font-weight:normal;font-stretch:normal;font-size:4.93889px;line-height:1.25;font-family:NeoSans;-inkscape-font-specification:NeoSans;display:none;fill:#000000;fill-opacity:1;stroke:none;stroke-width:0.264583"
       x="1.5213542"
       y="295.23541"
       id="text904"
       inkscape:label="split orig text"><tspan
         sodipodi:role="line"
         id="tspan902"
         x="0"
         y="0"
         style="font-style:normal;font-variant:normal;font-weight:normal;font-stretch:normal;font-size:4.93889px;font-family:NeoSans;-inkscape-font-specification:NeoSans;stroke-width:0.264583"><tspan
           style="fill:#ffffff"
           id="tspan898">spl</tspan><tspan
           style="fill:#333333"
           id="tspan900">it</tspan></tspan></text>
    <text
       xml:space="preserve"
       style="font-style:normal;font-variant:normal;font-weight:normal;font-stretch:normal;font-size:3.88056px;line-height:1.25;font-family:NeoSans;-inkscape-font-specification:NeoSans;display:none;fill:#333333;fill-opacity:1;stroke:none;stroke-width:0.264583"
       x="0.071417026"
       y="295.82007"
       id="text931"
       inkscape:label="merge orig text"><tspan
         sodipodi:role="line"
         id="tspan929"
         x="0"
         y="0"
         style="font-style:normal;font-variant:normal;font-weight:normal;font-stretch:normal;font-size:3.88056px;font-family:NeoSans;-inkscape-font-specification:NeoSans;fill:#333333;fill-opacity:1;stroke-width:0.264583">mer<tspan
   style="font-size:3.88056px;fill:#ffffff;fill-opacity:1"
   id="tspan927">ge</tspan></tspan></text>
    <rect
       style="opacity:0.383901;fill:#35f12a;fill-opacity:0.621622;stroke:none;stroke-width:0.853341;stroke-linejoin:round;stroke-miterlimit:4;stroke-dasharray:none;stroke-opacity:1;paint-order:stroke fill markers"
       id="rect3014"
       width="7.2254272"
       height="48.422577"
       x="-63.381065"
       y="-355.98715"
       rx="2.5068698"
       ry="0"
       transform="matrix(-0.49501075,0.86888685,0.06108775,-0.9981324,0,0)" />
    <rect
       style="display:none;fill:#fff200;fill-opacity:0.773077;stroke-width:0.250244"
       id="rect897"
       width="10.139827"
       height="9.6734638"
       x="-25.37232"
       y="168.5491"
       rx="1.1790502"
       ry="0.75870353" />
    <path
       style="opacity:0.76161;fill:#f20c0c;fill-opacity:0.830116;fill-rule:evenodd;stroke:none;stroke-width:1.68918;stroke-linejoin:round;stroke-miterlimit:4;stroke-dasharray:none;stroke-opacity:1;paint-order:stroke fill markers"
       d="m 6.4117867,177.43346 c -0.1654219,-0.0914 -0.545146,0.48292 -0.8438084,1.27626 -0.2986667,0.7933 -0.6345492,1.63144 -0.7464008,1.86252 -0.1118494,0.23103 -0.3356701,0.99413 -0.497378,1.69573 -0.4014133,1.7416 -0.7358642,2.79656 -0.9933308,3.13334 -0.1188267,0.15543 -0.3620342,1.14389 -0.5404736,2.19662 -0.1784434,1.05271 -0.8378933,3.28648 -1.4654552,4.96394 -0.62755963,1.67747 -1.00514597,3.59807 -0.83908543,4.26803 0.24743254,0.9983 1.03469163,2.42192 4.36302703,7.88998 2.2336058,3.66954 4.0633152,6.58588 4.0660275,6.48076 0.00267,-0.10532 0.2418148,0.32036 0.5313631,0.94653 0.4634879,1.00162 0.5610329,1.13601 0.8157779,1.12395 0.159154,-0.007 0.233867,-6.86604 0.166079,-15.24117 -0.0678,-8.37513 -0.204568,-15.21298 -0.303963,-15.19519 -0.2236051,0.04 -1.7584003,-2.04751 -1.764669,-2.40027 -0.00647,-0.36556 -1.5879582,-2.80231 -1.9477179,-3.00106 z"
       id="path3552" />
    <path
       style="opacity:0.383901;fill:#ff5454;fill-opacity:0.864865;fill-rule:evenodd;stroke:none;stroke-width:2.13113;stroke-linejoin:round;stroke-miterlimit:4;stroke-dasharray:none;stroke-opacity:1;paint-order:stroke fill markers"
       d="m 10.094014,174.49806 c 0.512765,-0.0887 -0.408076,5.43641 -4.4326777,26.59631 -3.9628938,20.83556 -5.34835262,27.41188 -6.30081822,29.90826 -0.70526658,1.84846 0.3012414,-4.79651 2.38308952,-15.7332 1.9822079,-10.41329 4.5263374,-23.82158 5.6535971,-29.79634 1.1272673,-5.97473 2.3408283,-10.91348 2.6968003,-10.97506 z"
       id="path3548" />
    <g
       aria-label="M"
       id="text74"
       style="font-style:normal;font-variant:normal;font-weight:normal;font-stretch:semi-condensed;font-size:10.5833px;line-height:1.25;font-family:Bahnschrift;-inkscape-font-specification:'Bahnschrift Semi-Condensed';letter-spacing:0px;display:inline;fill:#00fe96;fill-opacity:0.725869;stroke:#8c05eb;stroke-width:0.135799;stroke-miterlimit:4;stroke-dasharray:1.0864, 0.135799;stroke-dashoffset:0;stroke-opacity:0.683398;paint-order:stroke fill markers"
       transform="matrix(1.4436212,-0.39135473,0.36188703,1.2858422,-190.2025,-169.89982)">
      <path
         d="m 6.9492623,287.805 h 0.9198375 v 7.51373 H 6.9079213 v -5.65856 l 0.072347,0.33073 -1.5606232,4.18578 H 4.7426856 l -1.5606232,-4.08243 0.08785,-0.43408 v 5.65856 H 2.2880629 V 287.805 h 0.9456757 l 1.8448428,4.83689 z"
         style="font-style:normal;font-variant:normal;font-weight:normal;font-stretch:semi-condensed;font-family:Bahnschrift;-inkscape-font-specification:'Bahnschrift Semi-Condensed';fill:#00fe96;fill-opacity:0.725869;stroke:#8c05eb;stroke-width:0.135799;stroke-miterlimit:4;stroke-dasharray:1.0864, 0.135799;stroke-dashoffset:0;stroke-opacity:0.683398;paint-order:stroke fill markers"
         id="path899" />
    </g>
    <g
       aria-label="s"
       transform="matrix(3.8873192,1.0679443,-1.096936,4.9488311,134.99589,-593.99965)"
       id="text905"
       style="font-style:normal;font-variant:normal;font-weight:normal;font-stretch:normal;font-size:4.54702px;line-height:1.25;font-family:sans-serif;-inkscape-font-specification:sans-serif;display:inline;fill:#b607dd;fill-opacity:0.814672;stroke:#e5e943;stroke-width:0.0473698;stroke-miterlimit:4;stroke-dasharray:0.0947395, 0.0473698;stroke-dashoffset:0;stroke-opacity:0.772201;paint-order:stroke fill markers">
      <path
         d="m 9.838318,154.48249 q -0.2042607,0 -0.3840989,-0.04 -0.1776179,-0.04 -0.3330337,-0.11989 -0.1554157,-0.0799 -0.2864089,-0.19982 v 0 L 9.1034236,153.792 v 0 q 0.1864989,0.1421 0.3707775,0.21314 0.1842787,0.071 0.3641169,0.071 0.268647,0 0.401861,-0.0821 0.135433,-0.0844 0.135433,-0.25088 0,-0.11101 -0.07327,-0.16652 -0.07327,-0.0555 -0.182058,-0.0733 -0.108792,-0.02 -0.3063915,-0.0355 -0.017762,0 -0.037744,0 -0.019982,-0.002 -0.037744,-0.004 -0.00888,0 -0.017762,0 -0.00888,-0.002 -0.017762,-0.002 -0.2242427,-0.0178 -0.3796584,-0.0644 -0.1554157,-0.0488 -0.2597663,-0.17984 -0.1021303,-0.13099 -0.1021303,-0.37521 0,-0.24423 0.09991,-0.40631 0.09991,-0.16207 0.2975101,-0.242 0.1976,-0.0822 0.4951101,-0.0822 0.1798383,0 0.3419143,0.0333 0.164297,0.0333 0.313052,0.0999 0.148755,0.0644 0.286409,0.16429 v 0 l -0.273088,0.33082 v 0 q -0.173177,-0.11102 -0.341914,-0.16652 -0.166517,-0.0555 -0.3263733,-0.0555 -0.2309034,0 -0.3463551,0.0799 -0.1154517,0.0777 -0.1154517,0.23534 0,0.0932 0.064386,0.13988 0.066607,0.0466 0.1665169,0.0622 0.09991,0.0155 0.2841887,0.0266 0.013321,0.002 0.026643,0.002 0.015542,0 0.031083,0.002 0.00666,0 0.013321,0 0.00666,0 0.013321,0.002 0.2420045,0.0155 0.4107415,0.0644 0.170957,0.0488 0.286409,0.19315 0.115452,0.14432 0.115452,0.41741 0,0.24866 -0.106571,0.41296 -0.106571,0.16207 -0.321933,0.24422 -0.213141,0.0822 -0.537294,0.0822 z"
         style="font-style:normal;font-variant:normal;font-weight:normal;font-stretch:normal;font-family:Bahnschrift;-inkscape-font-specification:Bahnschrift;fill:#b607dd;fill-opacity:0.814672;stroke:#e5e943;stroke-width:0.0473698;stroke-miterlimit:4;stroke-dasharray:0.0947395, 0.0473698;stroke-dashoffset:0;stroke-opacity:0.772201;paint-order:stroke fill markers"
         id="path907" />
    </g>
    <use
       id="use3028"
       inkscape:spray-origin="#rect3014"
       xlink:href="#rect3014"
       x="0"
       y="0"
       width="100%"
       height="100%"
       transform="matrix(0.22587647,-0.36669647,0.15030684,0.97198803,-63.340647,-1.3811077)"
       style="opacity:0.529412;fill:#d41e90;fill-opacity:0.953668;fill-rule:evenodd;filter:url(#filter1987)" />
    <path
       style="opacity:0.383901;fill:#e2ff00;fill-opacity:1;fill-rule:evenodd;stroke:none;stroke-width:1.51755;stroke-linejoin:round;stroke-miterlimit:4;stroke-dasharray:none;stroke-opacity:1;paint-order:stroke fill markers"
       d="m 5.1966469,260.05525 c -0.0011,-1.75626 0.05899,-2.51946 0.133485,-1.696 0.0745,0.82345 0.07538,2.26039 0.002,3.19319 -0.07342,0.93281 -0.134371,0.25907 -0.135454,-1.49719 z"
       id="path3556" />
    <path
       style="opacity:0.383901;fill:#e2ff00;fill-opacity:1;fill-rule:evenodd;stroke:none;stroke-width:1.51755;stroke-linejoin:round;stroke-miterlimit:4;stroke-dasharray:none;stroke-opacity:1;paint-order:stroke fill markers"
       d="m 8.4550309,264.75126 c 0.6715785,-0.57344 1.310985,-0.95179 1.4209035,-0.84077 0.2391296,0.24152 -1.7781727,1.91418 -2.2867296,1.89605 -0.1953743,-0.007 0.1942476,-0.48183 0.8658261,-1.05528 z"
       id="path3558" />
    <path
       style="opacity:0.839009;fill:#055983;fill-opacity:0.783784;fill-rule:evenodd;stroke:none;stroke-width:6.4887;stroke-linejoin:round;stroke-miterlimit:4;stroke-dasharray:none;stroke-opacity:1;paint-order:stroke fill markers"
       d="m 0.09101782,233.07539 c -1.24876472,0.70933 2.61472278,13.64345 4.37525718,14.64738 0.8534645,0.48669 1.2253372,2.07032 0.8263784,3.51919 -0.4701166,1.70728 0.032685,2.66905 1.4288238,2.73318 1.1848099,0.0544 1.6656023,0.59112 1.0684325,1.1927 -0.5971541,0.60155 -0.565165,1.69984 0.071141,2.44064 0.6362879,0.7408 0.8980284,4.16362 0.5816578,7.60626 L 7.8675061,271.474 9.818643,264.91077 c 1.662236,-5.59149 1.512183,-7.80334 -1.0136254,-14.93887 -3.3872028,-9.56891 -7.5169355,-17.57651 -8.71399558,-16.89651 z"
       id="path3560" />
    <g
       id="g1853"
       transform="matrix(0.79021819,0.01003548,-0.02745485,0.28884573,6.0617219,194.20123)">
      <path
         style="opacity:0.383901;fill:#a700ff;fill-opacity:0.833977;fill-rule:evenodd;stroke:none;stroke-width:1.51755;stroke-linejoin:round;stroke-miterlimit:4;stroke-dasharray:none;stroke-opacity:1;paint-order:stroke fill markers"
         d="m 6.2497957,243.34798 c -0.09686,-0.14277 0.3313661,-0.83054 0.9516116,-1.52837 l 1.1277212,-1.26879 1.9042465,-15.76585 c 2.066904,-17.11252 2.290974,-20.67712 1.278102,-20.33248 -0.340633,0.11538 -0.728417,0.13536 -0.861603,0.0432 -0.133183,-0.0922 -0.03854,-0.23833 0.210316,-0.32476 0.248889,-0.0868 0.376954,-0.26844 0.284659,-0.40449 -0.214442,-0.31608 1.032875,-1.18879 1.344446,-0.94065 0.36061,0.28719 0.513111,4.07201 0.363354,9.01775 -0.0747,2.46704 -0.123944,5.71047 -0.109424,7.20763 0.01452,1.49718 0.0106,3.72624 -0.0087,4.9535 -0.0193,1.22724 -0.02927,2.76705 -0.02214,3.4218 0.0071,0.65473 -0.166709,3.2327 -0.386318,5.7288 -0.356589,4.05304 -0.480948,4.63474 -1.162932,5.43971 -0.420004,0.49572 -0.792197,1.15076 -0.827092,1.45561 -0.03488,0.30487 -0.219345,0.51282 -0.4098851,0.46213 -0.190537,-0.0507 -0.4673777,0.17688 -0.6150682,0.50406 -0.1477505,0.32793 -0.6830763,0.83378 -1.1896144,1.12412 -0.506536,0.29032 -0.9389415,0.68481 -0.9609002,0.87665 -0.050838,0.44416 -0.6790054,0.6721 -0.9107851,0.33061 z m 5.2794193,-23.78985 c 0.34827,-3.54787 -0.0352,-0.61085 -0.852239,6.52675 -0.8170322,7.13757 -1.1020095,10.04038 -0.633278,6.45067 0.468728,-3.5897 1.137211,-9.42953 1.485517,-12.97742 z"
         id="path3550" />
      <path
         style="opacity:0.383901;fill:#0010fe;fill-opacity:0.864865;fill-rule:evenodd;stroke:none;stroke-width:1.51755;stroke-linejoin:round;stroke-miterlimit:4;stroke-dasharray:none;stroke-opacity:1;paint-order:stroke fill markers"
         d="m 1.2892372,251.93567 c 0.1844064,-0.21642 0.6553088,-0.55141 1.0464477,-0.74441 0.6694463,-0.33033 0.8749789,-1.32988 3.503921,-17.04041 1.5359695,-9.17924 2.7940997,-17.31797 2.7957347,-18.08609 0.00194,-0.90842 -0.2052601,-1.48995 -0.5927669,-1.6637 -0.6624873,-0.29705 -0.3291659,-1.23081 0.3959841,-1.10929 0.6710642,0.11245 0.7076028,0.7288 0.3717531,6.27073 -0.3673983,6.06255 -1.2270994,18.58228 -1.3613317,19.82495 -0.6098239,5.64545 -1.080398,9.00416 -1.3469323,9.61369 -0.3839107,0.87798 -2.2079847,2.34451 -3.6804026,2.95902 -1.2472473,0.52053 -1.59047669,0.51311 -1.1324071,-0.0245 z m 5.426643,-19.23645 c 0.3013562,-2.17543 -0.045791,-0.41238 -0.7714296,3.91788 -0.7256385,4.33026 -0.9722033,6.11017 -0.5479161,3.95534 0.4242839,-2.15484 1.0179878,-5.69778 1.3193457,-7.87322 z"
         id="path3554" />
      <path
         style="opacity:0.383901;fill:#ff24db;fill-opacity:1;fill-rule:evenodd;stroke:none;stroke-width:2.12017;stroke-linejoin:round;stroke-miterlimit:4;stroke-dasharray:none;stroke-opacity:1;paint-order:stroke fill markers"
         d="m 7.2197062,224.34755 c 1.3748657,-15.18982 1.5062684,-18.49722 0.7479022,-18.82468 -0.5060033,-0.21849 -0.688727,-0.55213 -0.406052,-0.74142 0.6213353,-0.41605 1.8956175,-0.33785 1.6062482,0.0986 -0.113226,0.17078 0.3908458,0.61031 1.1201604,0.97675 1.290559,0.64841 1.283299,1.13785 -0.271397,18.29767 -1.5587019,17.20404 -1.6321761,17.64341 -3.0310977,18.12597 -1.4280183,0.4926 -1.4270938,0.42184 0.2342349,-17.93287 z"
         id="path3562" />
    </g>
    <path
       style="opacity:0.383901;fill:#ff00db;fill-opacity:1;fill-rule:evenodd;stroke:none;stroke-width:5.6136;stroke-linejoin:round;stroke-miterlimit:4;stroke-dasharray:none;stroke-opacity:1;paint-order:stroke fill markers"
       d="m 4.6611973,270.9099 c 0,-0.68299 1.000319,-0.9624 2.222926,-0.6209 1.222607,0.3415 1.222607,0.90031 0,1.2418 -1.222608,0.3415 -2.222926,0.0621 -2.222926,-0.6209 z"
       id="path3564" />
    <path
       style="opacity:0.383901;fill:#00ff6e;fill-opacity:1;fill-rule:evenodd;stroke:none;stroke-width:1.51755;stroke-linejoin:round;stroke-miterlimit:4;stroke-dasharray:none;stroke-opacity:1;paint-order:stroke fill markers"
       d="m 2.4384293,266.66264 c 0,-0.31145 1.4625495,-1.54951 1.8304825,-1.54951 0.1654801,0 0.3008728,0.15966 0.3008728,0.3548 0,0.19514 -0.2226751,0.35479 -0.4948336,0.35479 -0.2721585,0 -0.5868449,0.2395 -0.6993031,0.5322 -0.1985245,0.51673 -0.9372186,0.75927 -0.9372186,0.30772 z"
       id="path3566" />
    <path
       style="opacity:0.383901;fill:#00ff6e;fill-opacity:0.861004;fill-rule:evenodd;stroke:none;stroke-width:0.536535;stroke-linejoin:round;stroke-miterlimit:4;stroke-dasharray:none;stroke-opacity:1;paint-order:stroke fill markers"
       d="m 18.813725,181.90009 c -0.03022,0.0767 -0.11249,0.11689 -0.182831,0.0893 -0.07034,-0.0276 -0.115581,0.0179 -0.100525,0.10111 0.01506,0.0833 -0.0095,0.12574 -0.05461,0.0945 -0.04508,-0.0312 -0.324993,0.29013 -0.622017,0.71414 -0.297025,0.42401 -0.611462,0.83338 -0.698749,0.90972 -0.08728,0.0763 -0.363035,0.51197 -0.612776,0.96806 l -0.454074,0.82925 0.301575,1.36542 c 0.165861,0.75096 0.663732,2.53322 1.106372,3.96056 0.442641,1.42734 0.890582,2.98931 0.995423,3.47105 0.104838,0.48172 0.221952,0.84857 0.260246,0.81519 0.07293,-0.0636 0.737181,2.38649 0.754578,2.78324 0.0055,0.12588 0.09099,0.29686 0.189927,0.37995 0.142793,0.11992 0.142226,0.15789 -0.0027,0.18411 -0.13356,0.0242 -0.240514,-0.1706 -0.398001,-0.72474 -0.25123,-0.88398 -1.765264,-5.94723 -2.016065,-6.74214 -0.09417,-0.29847 -0.308867,-1.03406 -0.477103,-1.63464 -0.168238,-0.60057 -0.367938,-1.2815 -0.443781,-1.51317 -0.415404,-1.26892 -0.704169,-2.54965 -0.579933,-2.57212 0.07561,-0.0137 0.08376,-0.17985 0.01892,-0.38584 -0.06264,-0.199 -0.06092,-0.37141 0.0038,-0.38312 0.06474,-0.0117 0.102231,-0.1069 0.08329,-0.21161 -0.01893,-0.10467 0.05524,-0.32967 0.164827,-0.50001 0.109586,-0.17033 0.209527,-0.25771 0.222092,-0.19418 0.01258,0.0636 0.05318,0.0499 0.09025,-0.0303 0.09979,-0.21584 1.1154,-1.05165 1.140388,-0.93849 0.01179,0.0534 0.06053,-0.0104 0.108344,-0.14169 0.0478,-0.13134 0.160749,-0.25216 0.251007,-0.26848 0.09026,-0.0163 0.218265,-0.12555 0.28447,-0.24266 0.133592,-0.2364 0.755898,-0.40642 0.667677,-0.18244 z"
       id="path3568" />
    <path
       style="opacity:0.383901;fill:#00bbff;fill-opacity:1;fill-rule:evenodd;stroke:none;stroke-width:1.2649;stroke-linejoin:round;stroke-miterlimit:4;stroke-dasharray:none;stroke-opacity:1;paint-order:stroke fill markers"
       d="m -6.5506245,226.10588 c 0.1681785,-0.45942 5.499987,-0.0271 5.98144908,0.48497 0.9719584,1.03378 4.25161922,-7.58505 3.67036872,-9.6456 -0.08088,-0.28675 -0.3619144,-1.80225 -0.6245058,-3.36776 -0.4127661,-2.46087 -1.69377972,-9.57118 -2.07413822,-11.51255 -0.069793,-0.35615 -0.088263,-1.20448 -0.041079,-1.88517 0.10301,-1.48602 0.91135042,-0.62372 1.02839372,1.09705 0.041543,0.61072 0.2075061,1.57949 0.3688132,2.15282 0.1613064,0.57334 0.3501482,1.39386 0.4196502,1.82339 0.069502,0.42953 0.2045215,1.01995 0.3000485,1.31207 0.095533,0.29211 0.2176436,0.84776 0.2713636,1.23477 0.053742,0.38702 0.1853454,0.91609 0.2924929,1.17572 0.1071397,0.25963 0.2140836,0.86983 0.2376312,1.35601 0.023539,0.48617 0.087888,0.90045 0.1429824,0.92062 0.211615,0.0775 1.0337772,4.06124 1.1779471,5.70765 0.036539,0.41746 0.1630087,0.97806 0.2810053,1.24577 0.1179875,0.26771 0.2420825,0.8842 0.2757489,1.36996 0.033669,0.48577 0.1653668,1.07915 0.2926748,1.31862 0.127311,0.23946 0.270996,0.73797 0.319301,1.10778 0.0483,0.36982 0.215561,0.74701 0.371674,0.83821 0.1560917,0.0912 -0.04723,0.15695 -0.452219,0.14598 -0.4437737,-0.012 -0.4910332,0.0699 -0.118989,0.20604 0.6918627,0.25327 0.9768497,1.06532 0.9852397,2.80739 0.0079,1.64857 -2.2687713,2.25675 -5.59840112,1.49552 -0.723678,-0.16545 -1.1848256,-0.16896 -1.0247777,-0.008 0.2137634,0.21527 -0.2985147,0.0772 -1.93056648,-0.52019 -1.9335305,-0.7078 -2.2940496,-0.78801 -2.7806848,-0.6187 -0.5482145,0.19074 -1.8640516,0.0105 -1.771396,-0.24257 z"
       id="path3570" />
    <path
       style="opacity:0.383901;fill:#5bff00;fill-opacity:1;fill-rule:evenodd;stroke:none;stroke-width:0.536535;stroke-linejoin:round;stroke-miterlimit:4;stroke-dasharray:none;stroke-opacity:1;paint-order:stroke fill markers"
       d="m 2.9794249,268.03249 c -0.08302,-0.13417 0.073359,-0.33801 0.3326042,-0.43354 0.1208816,-0.0446 0.2215822,-0.18155 0.2237791,-0.30445 0.00367,-0.20559 0.018741,-0.20398 0.1883869,0.02 0.1825287,0.24103 0.1845431,0.24103 0.1992654,0 0.00818,-0.13393 0.00818,-0.28583 0,-0.33758 -0.00818,-0.0517 0.041644,-0.0941 0.1107187,-0.0941 0.069075,0 0.1312248,0.0706 0.1381103,0.1568 0.00688,0.0862 0.054276,0.0156 0.1053115,-0.1568 0.051036,-0.17248 0.1645097,-0.29747 0.2521641,-0.27775 0.087654,0.0197 0.3098336,-0.1214 0.493732,-0.3136 0.1838983,-0.1922 0.4180165,-0.34801 0.5202628,-0.34624 0.1022461,0.002 0.2424182,-0.0614 0.3114934,-0.14047 0.069075,-0.079 0.4364299,-0.30627 0.8163436,-0.50498 0.3799137,-0.19871 0.723999,-0.4063 0.7646341,-0.46131 0.040636,-0.055 0.1464581,-0.0127 0.2351628,0.0941 0.088705,0.10676 0.1113965,0.1941 0.050426,0.1941 -0.06097,0 -0.2615163,0.13954 -0.4456584,0.31008 -0.2266951,0.20995 -0.3548783,0.26058 -0.3969732,0.1568 -0.034379,-0.0848 -0.066602,-0.0518 -0.072085,0.0736 -0.00545,0.12481 -0.066431,0.19203 -0.1355064,0.14939 -0.069075,-0.0427 -0.1255913,0.0138 -0.1255913,0.12544 0,0.11164 -0.052649,0.17047 -0.1169981,0.13075 -0.064349,-0.0397 -0.2020352,0.049 -0.3059693,0.19725 -0.1189774,0.16966 -0.2641308,0.24066 -0.3918901,0.19169 -0.1180822,-0.0453 -0.1708392,-0.0259 -0.1261883,0.0462 0.06805,0.10997 -0.091943,0.17663 -0.3390434,0.14126 -0.047835,-0.007 -0.1896986,0.11799 -0.3152539,0.27741 -0.1255553,0.15943 -0.2983534,0.26654 -0.3839958,0.23803 -0.085642,-0.0285 -0.1557135,0.0422 -0.1557135,0.15722 0,0.11499 -0.069518,0.18592 -0.1544838,0.15764 -0.084966,-0.0283 -0.2403852,0.0421 -0.3453761,0.15646 -0.2407286,0.26217 -0.8534305,0.5229 -0.9316684,0.39647 z"
       id="path3574" />
    <text
       xml:space="preserve"
       style="font-style:normal;font-weight:normal;font-size:10.5833px;line-height:1.25;font-family:sans-serif;fill:#e3e723;fill-opacity:0.683398;stroke:#0b56ff;stroke-width:0.165;stroke-miterlimit:4;stroke-dasharray:0.33, 0.165;stroke-dashoffset:0;stroke-opacity:0.749035;paint-order:stroke fill markers"
       x="26.309572"
       y="197.15294"
       id="text950"
       transform="rotate(-1.9098799)"><tspan
         sodipodi:role="line"
         id="tspan948"
         x="26.309572"
         y="197.15294"
         style="font-style:normal;font-variant:normal;font-weight:300;font-stretch:condensed;font-family:Bahnschrift;-inkscape-font-specification:'Bahnschrift Light Condensed';fill:#e3e723;fill-opacity:0.683398;stroke:#0b56ff;stroke-width:0.165;stroke-miterlimit:4;stroke-dasharray:0.33, 0.165;stroke-dashoffset:0;stroke-opacity:0.749035;paint-order:stroke fill markers">8</tspan></text>
    <path
       style="display:inline;opacity:0.383901;fill:#5bff00;fill-opacity:1;fill-rule:evenodd;stroke:none;stroke-width:0.536535;stroke-linejoin:round;stroke-miterlimit:4;stroke-dasharray:none;stroke-opacity:1;paint-order:stroke fill markers"
       d=""
       id="path3576" />
    <path
       style="opacity:0.383901;fill:#06a069;fill-opacity:0.880309;fill-rule:evenodd;stroke:none;stroke-width:0.500367;stroke-linejoin:round;stroke-miterlimit:4;stroke-dasharray:none;stroke-opacity:1;paint-order:stroke fill markers"
       d="m 6.6712994,262.20474 c -0.5023467,-0.33374 -0.895535,-1.3168 -1.5093706,-3.77378 -0.1027867,-0.41142 -0.2995259,-1.12514 -0.4371984,-1.58604 -0.6399469,-2.14243 -1.6375795,-5.60277 -1.8095555,-6.27655 -0.1047696,-0.4105 -0.2217417,-0.82136 -0.259922,-0.91302 -0.038183,-0.0917 -0.2643084,-0.86335 -0.5025076,-1.71487 -0.8391869,-2.99994 -1.1336603,-4.01116 -1.29528678,-4.44795 -0.58483433,-1.58052 -0.63147613,-3.43641 -0.1018305,-4.05188 0.21076698,-0.24493 2.16535708,-1.63104 4.05796318,-2.87773 0.2372218,-0.1563 0.6164657,-0.43268 0.8427627,-0.61425 0.2262961,-0.18157 0.5562506,-0.39668 0.7332332,-0.478 0.1769719,-0.0813 0.3217815,-0.18077 0.3217815,-0.22095 0,-0.0402 0.23291,-0.20368 0.5175769,-0.36327 0.2846658,-0.1596 0.5175758,-0.329 0.5175758,-0.37649 0,-0.0475 0.049711,-0.0863 0.1104719,-0.0863 0.1013514,9e-5 0.8485432,-0.50069 1.4191686,-0.95114 0.1296343,-0.10231 0.5026348,-0.35097 0.8288892,-0.55251 l 0.593192,-0.36644 -0.05253,0.31409 c -0.0334,0.19968 -0.133016,0.34353 -0.273496,0.39495 -0.121522,0.0445 -0.3884897,0.22966 -0.5932374,0.41157 -0.20475,0.18188 -0.4352669,0.36411 -0.5122647,0.40495 -0.4413637,0.23408 -1.0475914,0.64231 -1.3095304,0.8818 -0.1213455,0.11096 -0.318174,0.2293 -0.4373702,0.26301 -0.1192044,0.0337 -0.3804126,0.20671 -0.5804797,0.38444 -0.2000699,0.17773 -0.4063731,0.32311 -0.4584552,0.32307 -0.052084,-7e-5 -0.3365442,0.19035 -0.632135,0.42303 -0.2955943,0.23272 -0.5814309,0.42308 -0.6351903,0.42303 -0.053766,-4e-5 -0.2239732,0.12755 -0.3782484,0.28359 -0.1542676,0.15603 -0.4745923,0.3821 -0.7118158,0.50239 -0.2372217,0.12027 -0.581815,0.35041 -0.7657628,0.51137 -0.1839473,0.16096 -0.4362668,0.34392 -0.5607069,0.40655 -0.1244447,0.0629 -0.3067246,0.1553 -0.4050748,0.20601 -0.098342,0.0509 -0.2524344,0.17952 -0.3424078,0.28638 -0.089982,0.10687 -0.1647877,0.16805 -0.1662402,0.13596 -0.00153,-0.0321 -0.160749,0.0871 -0.3539844,0.26482 -0.1932373,0.17775 -0.4261478,0.33626 -0.517577,0.35226 -0.0914346,0.016 -0.16708929,0.0405 -0.1681524,0.0545 -0.001063,0.014 -0.0474617,0.38587 -0.10312254,0.8264 -0.0706086,0.55887 0.0120431,1.21708 0.27364334,2.17742 0.2061701,0.75704 0.4035219,1.48834 0.4385637,1.62512 0.035047,0.13677 0.1091098,0.4244 0.1646102,0.63914 0.055502,0.21473 0.1768113,0.58786 0.2695983,0.82915 0.09278,0.2413 0.3670135,1.1517 0.6093994,2.02314 0.2423859,0.87145 0.4731508,1.67674 0.5128096,1.78956 0.039652,0.11282 0.1600946,0.53995 0.2676415,0.94918 0.1075504,0.40923 0.2165581,0.82375 0.2422548,0.92114 0.025697,0.0974 0.092374,0.31693 0.1481949,0.48784 0.055821,0.17091 0.1863837,0.61127 0.2901663,0.97855 0.1037792,0.36728 0.2212992,0.74214 0.2611511,0.83303 0.039847,0.0909 0.1553308,0.50242 0.2566191,0.91453 0.1012979,0.4121 0.3751598,1.39416 0.6085971,2.18236 0.2334389,0.78818 0.5847332,2.03844 0.7806544,2.77835 0.5043521,1.9047 0.8892482,2.25259 1.9315521,1.74579 0.2573628,-0.12509 0.4679865,-0.24858 0.4680538,-0.27438 1.553e-4,-0.0599 0.9050805,-0.67954 1.0839415,-0.74222 0.074203,-0.026 0.3451475,-0.23361 0.6020753,-0.46133 0.6251605,-0.55409 0.7294585,-0.58779 0.7294585,-0.23565 0,0.28243 -0.04987,0.33274 -0.9034127,0.91148 -0.4968768,0.3369 -0.943286,0.63386 -0.9920204,0.65991 -0.048737,0.0262 -0.3071629,0.18944 -0.5742837,0.36315 -0.8865043,0.5764 -1.2483685,0.69441 -1.5384351,0.50169 z"
       id="path3572" />
    <path
       style="display:inline;opacity:0.76161;fill:#f20c0c;fill-opacity:0.830116;fill-rule:evenodd;stroke:none;stroke-width:2.4057;stroke-linejoin:round;stroke-miterlimit:4;stroke-dasharray:none;stroke-opacity:1;paint-order:stroke fill markers"
       d="m 63.103769,221.34184 c -0.276553,-0.11407 -0.942915,0.56239 -1.480765,1.50326 -0.537855,0.94082 -1.140559,1.93423 -1.339332,2.20757 -0.198768,0.27329 -0.608617,1.18009 -0.910772,2.01506 -0.750051,2.07268 -1.35905,3.32559 -1.80875,3.72129 -0.207547,0.18262 -0.659302,1.35854 -1.003923,2.61323 -0.344627,1.25465 -1.551594,3.90895 -2.682167,5.89845 -1.130569,1.98951 -1.847455,4.27707 -1.593089,5.08349 0.379007,1.20164 1.655389,2.92759 7.073762,9.56548 3.636206,4.4546 6.618491,7.99642 6.627314,7.87071 0.0088,-0.12595 0.396757,0.39023 0.862075,1.14776 0.744878,1.21176 0.904716,1.37535 1.336746,1.36815 0.269883,-0.004 0.672322,-8.20959 0.894325,-18.2336 0.221993,-10.02401 0.265308,-18.2104 0.09622,-18.19193 -0.380402,0.0415 -2.896432,-2.5001 -2.892863,-2.92241 0.0037,-0.43763 -2.577339,-3.39849 -3.178788,-3.64655 z"
       id="path3552-5" />
    <path
       style="display:inline;opacity:0.76161;fill:#0ace51;fill-opacity:0.830116;fill-rule:evenodd;stroke:none;stroke-width:0.93057;stroke-linejoin:round;stroke-miterlimit:4;stroke-dasharray:none;stroke-opacity:1;paint-order:stroke fill markers"
       d="m 18.893388,228.78471 c -0.04928,0.128 -0.593544,0.74269 -1.209352,1.36583 -0.615826,0.6232 -1.278681,1.30191 -1.473018,1.50828 -0.194313,0.20636 -0.748483,0.74233 -1.231462,1.19103 -1.19892,1.11384 -1.980096,1.87982 -2.320183,2.27505 -0.156991,0.18242 -0.84665,0.82994 -1.532723,1.43901 -0.686054,0.60907 -2.3108062,2.18225 -3.6105712,3.49598 -1.2997695,1.31374 -2.582743,2.47696 -2.8510621,2.58495 -0.399659,0.16076 -0.7085842,-0.0439 -1.711235,-1.13539 -0.6728637,-0.73247 -1.1747703,-1.36916 -1.1153495,-1.41487 0.059378,-0.0457 -0.030566,-0.11077 -0.2005126,-0.14417 -0.2717004,-0.0537 -0.2868349,-0.0963 -0.1268688,-0.35597 0.1000018,-0.16227 3.9149247,-3.04251 8.477838,-6.40068 4.5628982,-3.35816 8.2392672,-6.0185 8.1696812,-5.91185 -0.156593,0.23999 0.06722,0.9208 0.257365,0.78277 0.197018,-0.14307 0.584731,0.44158 0.477454,0.72004 z"
       id="path3552-0" />
    <g
       aria-label="16"
       id="text2033"
       style="font-style:normal;font-weight:normal;font-size:10.5833px;line-height:1.25;font-family:sans-serif;fill:#ffffff;fill-opacity:0.791506;stroke:none;stroke-width:0.265;stroke-miterlimit:4;stroke-dasharray:0.265, 0.265;stroke-dashoffset:0">
      <path
         d="M 2.4179448,185.21811 H 1.6738066 v -6.88328 l -1.37975637,0.86299 v -0.78031 L 1.363749,177.70438 h 1.0541958 z"
         style="font-style:normal;font-variant:normal;font-weight:300;font-stretch:semi-condensed;font-family:Bahnschrift;-inkscape-font-specification:'Bahnschrift Light Semi-Condensed';fill:#ffffff;fill-opacity:0.791506;stroke:#2462ec;stroke-width:0.265;stroke-miterlimit:4;stroke-dasharray:0.265, 0.265;stroke-dashoffset:0;stroke-opacity:0.722008;paint-order:stroke fill markers"
         id="path931" />
      <path
         d="m 5.4926827,185.29562 q -0.5942771,0 -1.0180225,-0.23771 -0.4185778,-0.24288 -0.6407857,-0.69763 -0.2170403,-0.45475 -0.2170403,-1.1007 v -0.50643 q 0,-0.42891 0.098185,-0.82165 0.098185,-0.39791 0.2945547,-0.85783 0.031006,-0.0723 0.062011,-0.14469 0.036173,-0.0724 0.062012,-0.13953 l 1.4210974,-3.08507 h 0.8268203 l -1.7518255,3.74653 -0.1033525,-0.18604 q 0.1808669,-0.24287 0.4650864,-0.37723 0.2842195,-0.13436 0.6201152,-0.13436 0.5581037,0 0.956011,0.22738 0.3979072,0.2222 0.6046123,0.65628 0.2067051,0.42892 0.2067051,1.0387 v 0.5581 q 0,0.65112 -0.222208,1.11621 -0.2222079,0.45992 -0.6459533,0.7028 -0.4237454,0.24287 -1.0180225,0.24287 z m 0,-0.70279 q 0.5477684,0 0.8423231,-0.33073 0.2997224,-0.33073 0.2997224,-0.94051 v -0.5581 q 0,-0.63562 -0.30489,-0.98185 -0.30489,-0.3514 -0.857826,-0.3514 -0.5322656,0 -0.8216527,0.3514 -0.2893871,0.34623 -0.2893871,0.98701 v 0.55811 q 0,0.60461 0.2945547,0.93534 0.2997224,0.33073 0.8371556,0.33073 z"
         style="font-style:normal;font-variant:normal;font-weight:300;font-stretch:semi-condensed;font-family:Bahnschrift;-inkscape-font-specification:'Bahnschrift Light Semi-Condensed';fill:#ffffff;fill-opacity:0.791506;stroke:#2462ec;stroke-width:0.265;stroke-miterlimit:4;stroke-dasharray:0.265, 0.265;stroke-dashoffset:0;stroke-opacity:0.722008;paint-order:stroke fill markers"
         id="path934" />
    </g>
    <path
       style="display:inline;opacity:0.76161;fill:#47ce0a;fill-opacity:0.830116;fill-rule:evenodd;stroke:none;stroke-width:0.900442;stroke-linejoin:round;stroke-miterlimit:4;stroke-dasharray:none;stroke-opacity:1;paint-order:stroke fill markers"
       d="m 1.556483,243.22041 c 0.040853,0.15823 0.3605986,0.49435 0.710533,0.74693 0.3499336,0.25261 0.7279063,0.53854 0.8399301,0.63541 0.1120182,0.0969 0.422851,0.28034 0.6907265,0.40773 0.6649577,0.3162 1.1048231,0.5933 1.3064667,0.82303 0.093068,0.10603 0.4767013,0.29991 0.8525756,0.43085 0.3758576,0.13095 1.2874609,0.67204 2.0257819,1.20243 0.738331,0.53039 1.445197,0.81807 1.570818,0.6393 0.187426,-0.26623 0.277716,-1.05345 0.5016692,-4.36199 0.150296,-2.22032 0.247583,-4.03605 0.216183,-4.03496 -0.0314,0.001 -0.0059,-0.23773 0.05696,-0.53074 0.100412,-0.46902 0.09951,-0.56509 -0.0074,-0.80346 -0.06686,-0.1489 -2.0737232,0.0176 -4.4598254,0.37011 -2.386097,0.35248 -4.3011488,0.71658 -4.2556535,0.80914 0.1023716,0.20822 0.1241559,1.71892 0.025034,1.73696 -0.102746,0.0187 -0.1626104,1.58519 -0.073763,1.92928 z"
       id="path2035" />
    <path
       style="display:inline;opacity:0.76161;fill:#f2ec0c;fill-opacity:0.830116;fill-rule:evenodd;stroke:none;stroke-width:1.61064;stroke-linejoin:round;stroke-miterlimit:4;stroke-dasharray:none;stroke-opacity:1;paint-order:stroke fill markers"
       d="m 11.90156,289.93639 c 0.02808,-0.32663 -0.267326,-1.08983 -0.656478,-1.69595 -0.389133,-0.60612 -0.801968,-1.28686 -0.917398,-1.51273 -0.11541,-0.22586 -0.4844133,-0.68297 -0.8199835,-1.01582 -0.8330009,-0.82621 -1.3452218,-1.50781 -1.521376,-2.02439 -0.081285,-0.2384 -0.5553578,-0.73784 -1.0534995,-1.10989 -0.4981221,-0.37205 -1.5786292,-1.71863 -2.4011358,-2.99241 -0.8225163,-1.27378 -1.7356763,-2.05579 -2.029256,-1.7378 -0.4374713,0.4738 -1.0249322,2.01132 -3.25580856,8.52101 -1.49711194,4.36857 -2.68235674,7.94872 -2.63387894,7.9559 0.048516,0.007 -0.1267841,0.47427 -0.3899192,1.038 -0.4208977,0.9024 -0.4744115,1.09362 -0.4475325,1.59924 0.017073,0.31583 3.1709959,0.58155 7.0093538,0.59046 3.8383574,0.009 6.9653509,-0.14536 6.9488559,-0.34286 -0.037124,-0.44431 0.7924433,-3.45355 0.9538303,-3.45995 0.167236,-0.007 1.153161,-3.10248 1.214246,-3.81282 z"
       id="path2089" />
  </g>
  <g
     style="display:none"
     inkscape:label="components"
     id="layer2"
     inkscape:groupmode="layer">
    <circle
       inkscape:label="CV_Out"
       cy="74.25"
       cx="5.0799999"
       id="circle910"
       style="fill:#00ff00;fill-rule:evenodd;stroke-width:0.264582"
       r="4" />
    <circle
       inkscape:label="CV_Out"
       cy="58.75"
       cx="5.0799999"
       id="circle914"
       style="fill:#0000ff;fill-rule:evenodd;stroke-width:0.264582"
       r="4" />
    <circle
       inkscape:label="CV_Out"
       cy="85.5"
       cx="5.0799999"
       id="circle918"
       style="fill:#0000ff;fill-rule:evenodd;stroke-width:0.264582"
       r="3.4000001" />
    <circle
       style="fill:#00ff00;fill-rule:evenodd;stroke-width:0.264582"
       id="circle922"
       cx="5.0799999"
       cy="16.99971"
       inkscape:label="CV_Out"
       r="3.4000001" />
    <circle
       inkscape:label="CV_Out"
       cy="95.5"
       cx="5.0799999"
       id="circle884"
       style="fill:#0000ff;fill-rule:evenodd;stroke-width:0.264582"
       r="3.4000001" />
    <circle
       inkscape:label="CV_Out"
       cy="105.5"
       cx="5.0799999"
       id="circle886"
       style="fill:#0000ff;fill-rule:evenodd;stroke-width:0.264582"
       r="3.4000001" />
    <circle
       inkscape:label="CV_Out"
       cy="115.5"
       cx="5.0799999"
       id="circle888"
       style="fill:#0000ff;fill-rule:evenodd;stroke-width:0.264582"
       r="3.4000001" />
    <circle
       style="fill:#00ff00;fill-rule:evenodd;stroke-width:0.264582"
       id="circle890"
       cx="5.0799999"
       cy="26.99971"
       inkscape:label="CV_Out"
       r="3.4000001" />
    <circle
       style="fill:#00ff00;fill-rule:evenodd;stroke-width:0.264582"
       id="circle892"
       cx="5.0799999"
       cy="36.999706"
       inkscape:label="CV_Out"
       r="3.4000001" />
    <circle
       style="fill:#00ff00;fill-rule:evenodd;stroke-width:0.264582"
       id="circle894"
       cx="5.0799999"
       cy="46.999706"
       inkscape:label="CV_Out"
       r="3.4000001" />
  </g>
</svg>
